<svg width="24" height="24" viewBox="0 0 24 24" fill="none" xmlns="http://www.w3.org/2000/svg">
<path fill-rule="evenodd" clip-rule="evenodd" d="M6.89073 20L4 16.7881V14.8896L8.49403 9.98706L12.2406 14.1499L12.2402 14.1503L15.2402 17.6503L16.7587 16.3487L14.4102 13.6088L16.4485 11.8617L20 15.4132V20H6.89073ZM8.50762 7.01246L4 11.9299V4H17L18.8701 6.49353L20 8.16739V12.5847L16.5531 9.13785L13.0911 12.1053L8.50762 7.01246ZM6 22L2 17.5556V2H18L20.5 5.33333L22 7.55556V22H6ZM17 6.0002H15V8.00021H17V6.0002Z" fill="#2D2D2D"/>
</svg>
