<svg width="165" height="165" viewBox="0 0 165 165" fill="none" xmlns="http://www.w3.org/2000/svg">
<g filter="url(#filter0_d)">
<rect width="154" height="154" transform="translate(5.4375 3.30518)" fill="white"/>
<path d="M25.4375 21.3052L27.3721 27.3705L33.4375 29.3052L27.3721 31.2398L25.4375 37.3052L23.5029 31.2398L17.4375 29.3052L23.5029 27.3705L25.4375 21.3052Z" fill="#171717"/>
<path fill-rule="evenodd" clip-rule="evenodd" d="M155.019 7.72232H9.85464V152.888H155.019V7.72232ZM9.4375 7.30518V153.305H155.437V7.30518H9.4375Z" fill="#171717"/>
<path d="M127.343 129.835H128.42V132.743H129.144V129.835H130.219V129.231H127.343V129.835Z" fill="white"/>
<path d="M131.386 129.231H130.657V132.743H131.386V129.231Z" fill="white"/>
<path d="M133.2 132.743C134.27 132.743 134.917 132.081 134.917 130.984C134.917 129.89 134.27 129.231 133.212 129.231H131.962V132.743H133.2ZM132.691 132.117V129.857H133.173C133.838 129.857 134.19 130.202 134.19 130.984C134.19 131.771 133.838 132.117 133.169 132.117H132.691Z" fill="white"/>
<path d="M138.645 130.987C138.645 129.842 137.933 129.183 137.004 129.183C136.069 129.183 135.363 129.842 135.363 130.987C135.363 132.129 136.069 132.791 137.004 132.791C137.933 132.791 138.645 132.133 138.645 130.987ZM136.104 130.987C136.104 130.238 136.46 129.83 137.004 129.83C137.548 129.83 137.906 130.238 137.906 130.987C137.906 131.737 137.548 132.145 137.004 132.145C136.46 132.145 136.104 131.737 136.104 130.987Z" fill="white"/>
<path d="M131.624 134.873H130.895V138.385H131.624V134.873Z" fill="white"/>
<path d="M132.062 135.476H133.139V138.385H133.863V135.476H134.938V134.873H132.062V135.476Z" fill="white"/>
<path d="M136.217 134.873H135.467L135.532 137.333H136.151L136.217 134.873ZM135.436 138.021C135.433 138.246 135.618 138.428 135.843 138.428C136.061 138.428 136.249 138.246 136.251 138.021C136.249 137.798 136.061 137.616 135.843 137.616C135.618 137.616 135.433 137.798 135.436 138.021Z" fill="white"/>
</g>
<defs>
<filter id="filter0_d" x="0.4375" y="0.305176" width="164" height="164" filterUnits="userSpaceOnUse" color-interpolation-filters="sRGB">
<feFlood flood-opacity="0" result="BackgroundImageFix"/>
<feColorMatrix in="SourceAlpha" type="matrix" values="0 0 0 0 0 0 0 0 0 0 0 0 0 0 0 0 0 0 127 0" result="hardAlpha"/>
<feOffset dy="2"/>
<feGaussianBlur stdDeviation="2.5"/>
<feComposite in2="hardAlpha" operator="out"/>
<feColorMatrix type="matrix" values="0 0 0 0 0 0 0 0 0 0 0 0 0 0 0 0 0 0 0.2 0"/>
<feBlend mode="normal" in2="BackgroundImageFix" result="effect1_dropShadow"/>
<feBlend mode="normal" in="SourceGraphic" in2="effect1_dropShadow" result="shape"/>
</filter>
</defs>
</svg>
