<svg width="165" height="165" viewBox="0 0 165 165" fill="none" xmlns="http://www.w3.org/2000/svg">
<g filter="url(#filter0_d)">
<rect width="154" height="154" transform="translate(5.4375 3.30518)" fill="white"/>
<path d="M25.4375 21.3052L27.3721 27.3705L33.4375 29.3052L27.3721 31.2398L25.4375 37.3052L23.5029 31.2398L17.4375 29.3052L23.5029 27.3705L25.4375 21.3052Z" fill="#171717"/>
<path fill-rule="evenodd" clip-rule="evenodd" d="M9.85464 7.72232H155.019V136.42H147.135L142.002 134.139L139.436 128.555L136.95 134.068L131.736 136.42H122.384L118.611 134.743L116.687 130.555L114.822 134.69L110.986 136.42H9.85464V7.72232ZM111.275 136.82H9.85464V152.888H155.019V136.82H146.849L141.925 139.042L139.436 144.555L136.95 139.042L132.026 136.82H122.1L118.553 138.42L116.687 142.555L114.822 138.42L111.275 136.82ZM9.4375 136.82V136.42V7.30518H155.437V136.42H155.438V136.82H155.437V153.305H9.4375V136.82Z" fill="#2D2D2D"/>
</g>
<defs>
<filter id="filter0_d" x="0.4375" y="0.305176" width="164" height="164" filterUnits="userSpaceOnUse" color-interpolation-filters="sRGB">
<feFlood flood-opacity="0" result="BackgroundImageFix"/>
<feColorMatrix in="SourceAlpha" type="matrix" values="0 0 0 0 0 0 0 0 0 0 0 0 0 0 0 0 0 0 127 0" result="hardAlpha"/>
<feOffset dy="2"/>
<feGaussianBlur stdDeviation="2.5"/>
<feComposite in2="hardAlpha" operator="out"/>
<feColorMatrix type="matrix" values="0 0 0 0 0 0 0 0 0 0 0 0 0 0 0 0 0 0 0.2 0"/>
<feBlend mode="normal" in2="BackgroundImageFix" result="effect1_dropShadow"/>
<feBlend mode="normal" in="SourceGraphic" in2="effect1_dropShadow" result="shape"/>
</filter>
</defs>
</svg>
