<svg width="165" height="197" viewBox="0 0 165 197" fill="none" xmlns="http://www.w3.org/2000/svg">
<g filter="url(#filter0_d)">
<rect width="154" height="186" transform="translate(5.4375 3.30518)" fill="white"/>
<path fill-rule="evenodd" clip-rule="evenodd" d="M19.4265 32.6086L24.2298 27.8052H17.4375V26.8052H24.2295L19.4265 22.0022L20.1336 21.2951L24.9365 26.098V19.3052H25.9365V26.0985L30.7402 21.2948L31.4473 22.002L26.644 26.8052H33.4375V27.8052H26.6437L31.4473 32.6088L30.7402 33.3159L25.9365 28.5122V35.3052H24.9365V28.5127L20.1336 33.3157L19.4265 32.6086Z" fill="black"/>
<path fill-rule="evenodd" clip-rule="evenodd" d="M9.85464 7.81375H155.019V163.105H9.85464V7.81375ZM9.4375 163.505V163.105V7.30518H155.437V163.105H155.438V163.505H155.437V185.305H9.4375V163.505ZM155.019 163.505V184.797H9.85464V163.505H155.019Z" fill="#171717"/>
<path d="M153.057 160.707C153.057 158.563 152.202 156.507 150.68 154.991C149.158 153.475 147.093 152.623 144.94 152.623C144.842 152.623 144.749 152.623 144.65 152.623C145.313 151.426 145.66 150.081 145.659 148.714C145.659 146.57 144.804 144.514 143.282 142.998C141.76 141.482 139.695 140.63 137.542 140.63C136.21 140.627 134.897 140.951 133.72 141.574C132.543 142.196 131.538 143.098 130.793 144.198C130.049 143.098 129.044 142.196 127.867 141.574C126.69 140.951 125.377 140.627 124.045 140.63C121.892 140.63 119.827 141.482 118.305 142.998C116.783 144.514 115.927 146.57 115.927 148.714C115.927 150.077 116.272 151.417 116.931 152.612L116.838 152.612C114.685 152.612 112.62 153.463 111.098 154.979C109.576 156.495 108.721 158.552 108.721 160.696C108.721 162.84 109.576 164.896 111.098 166.412C112.62 167.928 114.685 168.78 116.838 168.78C116.954 168.78 117.064 168.78 117.174 168.78C116.361 170.067 115.929 171.556 115.927 173.076C115.927 175.22 116.783 177.276 118.305 178.792C119.827 180.308 121.892 181.16 124.045 181.16C125.378 181.162 126.691 180.837 127.868 180.213C129.045 179.59 130.05 178.688 130.793 177.586C131.537 178.688 132.542 179.59 133.719 180.213C134.896 180.837 136.209 181.162 137.542 181.16C139.695 181.16 141.76 180.308 143.282 178.792C144.804 177.276 145.659 175.22 145.659 173.076C145.658 171.551 145.224 170.058 144.407 168.768C144.587 168.768 144.761 168.797 144.94 168.797C146.007 168.797 147.063 168.588 148.048 168.181C149.033 167.775 149.928 167.179 150.682 166.427C151.436 165.676 152.034 164.784 152.441 163.803C152.849 162.821 153.058 161.769 153.057 160.707Z" fill="white"/>
<path fill-rule="evenodd" clip-rule="evenodd" d="M150.438 160.73C150.438 158.839 149.703 157.027 148.399 155.691C147.094 154.356 145.326 153.607 143.483 153.607L142.828 153.607L143.017 153.256C143.585 152.201 143.883 151.015 143.882 149.809C143.882 147.919 143.148 146.106 141.843 144.771C140.539 143.435 138.771 142.686 136.928 142.686C135.787 142.684 134.663 142.969 133.655 143.517C132.647 144.065 131.785 144.858 131.147 145.828L130.948 146.131L130.749 145.828C130.111 144.858 129.249 144.065 128.241 143.517C127.233 142.969 126.109 142.684 124.969 142.686C123.126 142.686 121.357 143.435 120.053 144.771C118.748 146.106 118.014 147.918 118.014 149.809C118.013 151.011 118.309 152.193 118.874 153.246L119.063 153.596L118.582 153.596C116.74 153.596 114.971 154.345 113.667 155.681C112.362 157.016 111.628 158.828 111.628 160.719C111.628 162.61 112.362 164.422 113.667 165.758C114.971 167.093 116.74 167.842 118.582 167.842L119.306 167.842L119.083 168.205C118.386 169.339 118.015 170.652 118.014 171.992C118.014 173.883 118.748 175.695 120.053 177.031C121.357 178.366 123.126 179.115 124.968 179.115C126.109 179.117 127.234 178.831 128.242 178.282C129.25 177.733 130.111 176.939 130.749 175.968L130.948 175.665L131.147 175.968C131.785 176.939 132.646 177.733 133.654 178.282C134.662 178.831 135.786 179.117 136.928 179.115C138.77 179.115 140.539 178.366 141.843 177.031C143.148 175.695 143.882 173.883 143.882 171.992C143.881 170.648 143.509 169.331 142.808 168.195L142.584 167.832L143.011 167.832C143.1 167.832 143.187 167.839 143.263 167.845L143.267 167.846C143.347 167.852 143.415 167.858 143.483 167.858C144.396 167.858 145.3 167.674 146.144 167.316C146.988 166.958 147.754 166.434 148.4 165.772C149.046 165.11 149.559 164.324 149.909 163.459C150.258 162.594 150.438 161.666 150.438 160.73ZM144.12 171.992C144.12 173.944 143.362 175.817 142.014 177.197C140.665 178.577 138.835 179.353 136.928 179.353C135.747 179.355 134.583 179.059 133.54 178.491C132.572 177.964 131.735 177.218 131.093 176.311C131.043 176.241 130.995 176.17 130.948 176.098C130.901 176.17 130.853 176.241 130.803 176.311C130.161 177.218 129.324 177.964 128.356 178.491C127.313 179.059 126.149 179.355 124.968 179.353C123.061 179.353 121.231 178.577 119.882 177.197C118.533 175.817 117.776 173.944 117.776 171.992C117.777 170.701 118.11 169.434 118.74 168.318C118.785 168.238 118.832 168.159 118.88 168.08L118.582 168.08C116.675 168.08 114.845 167.305 113.497 165.924C112.148 164.544 111.39 162.671 111.39 160.719C111.39 158.767 112.148 156.895 113.497 155.514C114.802 154.179 116.556 153.409 118.397 153.361C118.458 153.359 118.52 153.358 118.582 153.358L118.665 153.358C118.636 153.306 118.609 153.253 118.582 153.2C118.569 153.174 118.555 153.147 118.542 153.12C118.038 152.094 117.775 150.96 117.776 149.809C117.776 147.857 118.533 145.985 119.882 144.604C121.231 143.224 123.061 142.448 124.968 142.448C126.149 142.446 127.312 142.741 128.355 143.308C129.323 143.834 130.16 144.579 130.803 145.486C130.853 145.555 130.901 145.626 130.948 145.698C130.995 145.626 131.043 145.555 131.093 145.486C131.735 144.579 132.573 143.834 133.541 143.308C134.584 142.741 135.747 142.446 136.928 142.448C138.835 142.448 140.665 143.224 142.014 144.604C143.362 145.985 144.12 147.857 144.12 149.809C144.121 150.964 143.856 152.102 143.349 153.131C143.31 153.211 143.269 153.29 143.226 153.369L143.483 153.369C143.487 153.369 143.492 153.369 143.496 153.369C145.399 153.372 147.223 154.147 148.569 155.525C149.918 156.905 150.676 158.777 150.676 160.73C150.676 161.697 150.491 162.655 150.13 163.548C149.768 164.442 149.239 165.254 148.571 165.938C147.903 166.622 147.11 167.165 146.237 167.535C145.364 167.905 144.428 168.096 143.483 168.096C143.421 168.096 143.36 168.092 143.299 168.087C143.282 168.086 143.264 168.084 143.247 168.083C143.169 168.076 143.09 168.07 143.011 168.07C143.06 168.15 143.108 168.232 143.155 168.314C143.786 169.431 144.119 170.699 144.12 171.992Z" fill="#171717"/>
<path d="M130.437 154.353L131.07 158.738L134.009 155.23L132.165 159.317L136.623 157.627L132.797 160.321L137.58 160.901L132.797 161.48L136.623 164.174L132.165 162.484L134.009 166.571L131.07 163.064L130.437 167.448L129.805 163.064L126.866 166.571L128.71 162.484L124.252 164.174L128.078 161.48L123.295 160.901L128.078 160.321L124.252 157.627L128.71 159.317L126.866 155.23L129.805 158.738L130.437 154.353Z" fill="#2D2D2D"/>
</g>
<defs>
<filter id="filter0_d" x="0.4375" y="0.305176" width="164" height="196" filterUnits="userSpaceOnUse" color-interpolation-filters="sRGB">
<feFlood flood-opacity="0" result="BackgroundImageFix"/>
<feColorMatrix in="SourceAlpha" type="matrix" values="0 0 0 0 0 0 0 0 0 0 0 0 0 0 0 0 0 0 127 0" result="hardAlpha"/>
<feOffset dy="2"/>
<feGaussianBlur stdDeviation="2.5"/>
<feComposite in2="hardAlpha" operator="out"/>
<feColorMatrix type="matrix" values="0 0 0 0 0 0 0 0 0 0 0 0 0 0 0 0 0 0 0.2 0"/>
<feBlend mode="normal" in2="BackgroundImageFix" result="effect1_dropShadow"/>
<feBlend mode="normal" in="SourceGraphic" in2="effect1_dropShadow" result="shape"/>
</filter>
</defs>
</svg>
