<svg width="165" height="197" viewBox="0 0 165 197" fill="none" xmlns="http://www.w3.org/2000/svg">
<g filter="url(#filter0_d)">
<rect width="154" height="186" transform="translate(5.4375 3.30518)" fill="white"/>
<path fill-rule="evenodd" clip-rule="evenodd" d="M19.4265 32.6086L24.2298 27.8052H17.4375V26.8052H24.2295L19.4265 22.0022L20.1336 21.2951L24.9365 26.098V19.3052H25.9365V26.0985L30.7402 21.2948L31.4473 22.002L26.644 26.8052H33.4375V27.8052H26.6437L31.4473 32.6088L30.7402 33.3159L25.9365 28.5122V35.3052H24.9365V28.5127L20.1336 33.3157L19.4265 32.6086Z" fill="black"/>
<path fill-rule="evenodd" clip-rule="evenodd" d="M9.85464 7.81375H155.019V155.105H9.85464V7.81375ZM9.4375 155.505V155.105V7.30518H155.437V155.105H155.438V155.505H155.437V185.305H9.4375V155.505ZM155.019 155.505V184.797H9.85464V155.505H155.019Z" fill="#171717"/>
<path d="M19.7879 169.305H22.5119V168.571H20.6743V165.033H19.7879V169.305Z" fill="#2D2D2D"/>
<path d="M23.0676 169.305H25.9438V168.571H23.954V167.534H25.7853V166.802H23.954V165.768H25.9355V165.033H23.0676V169.305Z" fill="#2D2D2D"/>
<path d="M26.4399 165.768H27.7498V169.305H28.63V165.768H29.9377V165.033H26.4399V165.768Z" fill="#2D2D2D"/>
<path d="M31.0169 165.033H30.3912V166.652H31.0169V165.033Z" fill="#2D2D2D"/>
<path d="M33.9615 166.256H34.8125C34.8021 165.499 34.1764 164.975 33.2315 164.975C32.2971 164.975 31.613 165.49 31.6172 166.264C31.6151 166.894 32.0573 167.253 32.7789 167.428L33.2461 167.543C33.7092 167.657 33.974 167.793 33.9761 168.083C33.974 168.404 33.6737 168.619 33.2086 168.619C32.7351 168.619 32.3931 168.404 32.3639 167.974H31.5045C31.5275 168.888 32.1866 169.366 33.2169 169.366C34.2598 169.366 34.8688 168.867 34.8709 168.087C34.8688 167.374 34.3244 167 33.5924 166.836L33.2086 166.742C32.8394 166.656 32.5203 166.519 32.5245 166.206C32.5266 165.924 32.7768 165.718 33.2232 165.718C33.6591 165.718 33.9282 165.916 33.9615 166.256Z" fill="#2D2D2D"/>
<path d="M36.8233 169.305H37.7098V167.914H38.4773C39.4597 167.914 40.027 167.326 40.027 166.477C40.027 165.632 39.4701 165.033 38.4982 165.033H36.8233V169.305ZM37.7098 167.198V165.761H38.3334C38.8611 165.761 39.1135 166.047 39.1135 166.477C39.1135 166.904 38.8611 167.198 38.3355 167.198H37.7098Z" fill="#2D2D2D"/>
<path d="M44.4798 167.169C44.4798 165.776 43.6142 164.975 42.4837 164.975C41.347 164.975 40.4877 165.776 40.4877 167.169C40.4877 168.558 41.347 169.363 42.4837 169.363C43.6142 169.363 44.4798 168.563 44.4798 167.169ZM41.3887 167.169C41.3887 166.258 41.8225 165.761 42.4837 165.761C43.1449 165.761 43.5808 166.258 43.5808 167.169C43.5808 168.081 43.1449 168.577 42.4837 168.577C41.8225 168.577 41.3887 168.081 41.3887 167.169Z" fill="#2D2D2D"/>
<path d="M47.4165 166.256H48.2674C48.257 165.499 47.6313 164.975 46.6865 164.975C45.7521 164.975 45.0679 165.49 45.0721 166.264C45.07 166.894 45.5122 167.253 46.2339 167.428L46.7011 167.543C47.1641 167.657 47.429 167.793 47.4311 168.083C47.429 168.404 47.1286 168.619 46.6635 168.619C46.1901 168.619 45.848 168.404 45.8188 167.974H44.9595C44.9824 168.888 45.6415 169.366 46.6719 169.366C47.7147 169.366 48.3238 168.867 48.3258 168.087C48.3238 167.374 47.7794 167 47.0473 166.836L46.6635 166.742C46.2943 166.656 45.9752 166.519 45.9794 166.206C45.9815 165.924 46.2318 165.718 46.6781 165.718C47.114 165.718 47.3831 165.916 47.4165 166.256Z" fill="#2D2D2D"/>
<path d="M48.7193 165.768H50.0292V169.305H50.9093V165.768H52.2171V165.033H48.7193V165.768Z" fill="#2D2D2D"/>
<path d="M58.0527 167.169C58.0527 165.776 57.1871 164.975 56.0566 164.975C54.9199 164.975 54.0606 165.776 54.0606 167.169C54.0606 168.558 54.9199 169.363 56.0566 169.363C57.1871 169.363 58.0527 168.563 58.0527 167.169ZM54.9616 167.169C54.9616 166.258 55.3955 165.761 56.0566 165.761C56.7178 165.761 57.1537 166.258 57.1537 167.169C57.1537 168.081 56.7178 168.577 56.0566 168.577C55.3955 168.577 54.9616 168.081 54.9616 167.169Z" fill="#2D2D2D"/>
<path d="M61.3168 165.033V167.732C61.3168 168.229 60.9706 168.583 60.4387 168.583C59.9069 168.583 59.5586 168.229 59.5586 167.732V165.033H58.6721V167.808C58.6721 168.742 59.375 169.366 60.4387 169.366C61.4962 169.366 62.2053 168.742 62.2053 167.808V165.033H61.3168Z" fill="#2D2D2D"/>
<path d="M62.9074 169.305H63.7938V167.787H64.4717L65.283 169.305H66.2633L65.356 167.643C65.842 167.434 66.1111 167.011 66.1111 166.425C66.1111 165.582 65.5542 165.033 64.5822 165.033H62.9074V169.305ZM63.7938 167.069V165.761H64.4175C64.9452 165.761 65.1975 165.997 65.1975 166.425C65.1975 166.852 64.9452 167.069 64.4195 167.069H63.7938Z" fill="#2D2D2D"/>
<path d="M19.7879 176.305H20.6743V174.534H22.5244V176.305H23.4129V172.033H22.5244V173.802H20.6743V172.033H19.7879V176.305Z" fill="#2D2D2D"/>
<path d="M24.8309 176.305L25.1521 175.321H26.6997L27.0209 176.305H27.972L26.4953 172.033H25.3565L23.8798 176.305H24.8309ZM25.3773 174.626L25.9092 172.997H25.9426L26.4744 174.626H25.3773Z" fill="#2D2D2D"/>
<path d="M28.4354 176.305H29.3218V174.914H30.0894C31.0718 174.914 31.6391 174.326 31.6391 173.477C31.6391 172.632 31.0822 172.033 30.1102 172.033H28.4354V176.305ZM29.3218 174.198V172.761H29.9455C30.4732 172.761 30.7255 173.047 30.7255 173.477C30.7255 173.904 30.4732 174.198 29.9475 174.198H29.3218Z" fill="#2D2D2D"/>
<path d="M32.1811 176.305H33.0675V174.914H33.8351C34.8174 174.914 35.3847 174.326 35.3847 173.477C35.3847 172.632 34.8279 172.033 33.8559 172.033H32.1811V176.305ZM33.0675 174.198V172.761H33.6911C34.2188 172.761 34.4712 173.047 34.4712 173.477C34.4712 173.904 34.2188 174.198 33.6932 174.198H33.0675Z" fill="#2D2D2D"/>
<path d="M35.6702 172.033L37.2262 174.785V176.305H38.1105V174.785L39.6685 172.033H38.6716L37.6892 173.877H37.6475L36.6651 172.033H35.6702Z" fill="#2D2D2D"/>
<path d="M41.501 172.033V176.305H42.3624V173.498H42.3958L43.5117 176.286H44.1019L45.2157 173.508H45.2532V176.305H46.1126V172.033H45.0196L43.8329 174.928H43.7828L42.596 172.033H41.501Z" fill="#2D2D2D"/>
<path d="M46.8157 176.305H49.692V175.571H47.7022V174.534H49.5334V173.802H47.7022V172.768H49.6836V172.033H46.8157V176.305Z" fill="#2D2D2D"/>
<path d="M50.355 172.033V176.305H51.2164V173.498H51.2497L52.3656 176.286H52.9559L54.0696 173.508H54.1072V176.305H54.9665V172.033H53.8736L52.6868 174.928H52.6367L51.45 172.033H50.355Z" fill="#2D2D2D"/>
<path d="M59.5804 174.169C59.5804 172.776 58.7149 171.975 57.5844 171.975C56.4477 171.975 55.5883 172.776 55.5883 174.169C55.5883 175.558 56.4477 176.363 57.5844 176.363C58.7149 176.363 59.5804 175.563 59.5804 174.169ZM56.4894 174.169C56.4894 173.258 56.9232 172.761 57.5844 172.761C58.2456 172.761 58.6815 173.258 58.6815 174.169C58.6815 175.081 58.2456 175.577 57.5844 175.577C56.9232 175.577 56.4894 175.081 56.4894 174.169Z" fill="#2D2D2D"/>
<path d="M60.1999 176.305H61.0863V174.787H61.7642L62.5755 176.305H63.5558L62.6485 174.643C63.1345 174.434 63.4036 174.011 63.4036 173.425C63.4036 172.582 62.8467 172.033 61.8747 172.033H60.1999V176.305ZM61.0863 174.069V172.761H61.71C62.2376 172.761 62.49 172.997 62.49 173.425C62.49 173.852 62.2376 174.069 61.712 174.069H61.0863Z" fill="#2D2D2D"/>
<path d="M64.8851 172.033H63.9987V176.305H64.8851V172.033Z" fill="#2D2D2D"/>
<path d="M65.5854 176.305H68.4616V175.571H66.4718V174.534H68.3031V173.802H66.4718V172.768H68.4533V172.033H65.5854V176.305Z" fill="#2D2D2D"/>
<path d="M71.4419 173.256H72.2928C72.2824 172.499 71.6567 171.975 70.7119 171.975C69.7775 171.975 69.0933 172.49 69.0975 173.264C69.0954 173.894 69.5376 174.253 70.2593 174.428L70.7265 174.543C71.1895 174.657 71.4544 174.793 71.4565 175.083C71.4544 175.404 71.154 175.619 70.6889 175.619C70.2155 175.619 69.8734 175.404 69.8442 174.974H68.9849C69.0078 175.888 69.6669 176.366 70.6973 176.366C71.7401 176.366 72.3492 175.867 72.3512 175.087C72.3492 174.374 71.8048 174 71.0727 173.836L70.6889 173.742C70.3197 173.656 70.0006 173.519 70.0048 173.206C70.0069 172.924 70.2572 172.718 70.7035 172.718C71.1394 172.718 71.4085 172.916 71.4419 173.256Z" fill="#2D2D2D"/>
<path d="M73.4038 176.357C73.6687 176.357 73.8981 176.136 73.9002 175.863C73.8981 175.592 73.6687 175.371 73.4038 175.371C73.1306 175.371 72.9053 175.592 72.9095 175.863C72.9053 176.136 73.1306 176.357 73.4038 176.357Z" fill="#2D2D2D"/>
<g clip-path="url(#clip0)">
<rect x="157.411" y="172.061" width="21.5207" height="49.1148" rx="10.7604" transform="rotate(135 157.411 172.061)" fill="white"/>
<rect x="122.807" y="187.404" width="21.5207" height="49.1148" rx="10.7604" transform="rotate(-135 122.807 187.404)" fill="white"/>
<path fill-rule="evenodd" clip-rule="evenodd" d="M147.917 177.784C151.663 174.037 151.663 167.963 147.917 164.217L146.114 162.414L148.028 160.5C151.774 156.753 151.774 150.679 148.028 146.933C144.281 143.186 138.207 143.186 134.461 146.933L132.547 148.847L130.521 146.821C126.775 143.075 120.701 143.075 116.954 146.821C113.208 150.567 113.208 156.642 116.954 160.388L118.98 162.414L117.065 164.329C113.319 168.075 113.319 174.149 117.065 177.895C120.811 181.642 126.886 181.642 130.632 177.895L132.547 175.981L134.35 177.784C138.096 181.53 144.17 181.53 147.917 177.784Z" fill="white"/>
<path fill-rule="evenodd" clip-rule="evenodd" d="M145.593 162.414L147.767 160.24C151.37 156.637 151.37 150.796 147.767 147.193C144.165 143.59 138.324 143.59 134.721 147.193L132.547 149.367L130.261 147.081C126.658 143.479 120.817 143.479 117.214 147.081C113.612 150.684 113.612 156.525 117.214 160.128L119.5 162.414L117.325 164.589C113.723 168.191 113.723 174.033 117.325 177.635C120.928 181.238 126.769 181.238 130.372 177.635L132.547 175.46L134.61 177.523C138.213 181.126 144.054 181.126 147.657 177.523C151.259 173.921 151.259 168.08 147.657 164.477L145.593 162.414ZM117.065 164.329C113.319 168.075 113.319 174.149 117.065 177.895C120.811 181.642 126.886 181.642 130.632 177.895L132.547 175.981L134.35 177.784C138.096 181.53 144.17 181.53 147.917 177.784C151.663 174.037 151.663 167.963 147.917 164.217L146.114 162.414L148.028 160.5C151.774 156.753 151.774 150.679 148.028 146.933C144.281 143.186 138.207 143.186 134.461 146.933L132.547 148.847L130.521 146.821C126.775 143.075 120.701 143.075 116.954 146.821C113.208 150.567 113.208 156.642 116.954 160.388L118.98 162.414L117.065 164.329Z" fill="#171717"/>
<path d="M132.438 156.281L133.019 160.315L135.723 157.088L134.027 160.848L138.129 159.293L134.609 161.772L139.009 162.305L134.609 162.838L138.129 165.317L134.027 163.762L135.723 167.522L133.019 164.295L132.438 168.329L131.856 164.295L129.152 167.522L130.849 163.762L126.747 165.317L130.267 162.838L125.866 162.305L130.267 161.772L126.747 159.293L130.849 160.848L129.152 157.088L131.856 160.315L132.438 156.281Z" fill="#2D2D2D"/>
</g>
</g>
<defs>
<filter id="filter0_d" x="0.4375" y="0.305176" width="164" height="196" filterUnits="userSpaceOnUse" color-interpolation-filters="sRGB">
<feFlood flood-opacity="0" result="BackgroundImageFix"/>
<feColorMatrix in="SourceAlpha" type="matrix" values="0 0 0 0 0 0 0 0 0 0 0 0 0 0 0 0 0 0 127 0" result="hardAlpha"/>
<feOffset dy="2"/>
<feGaussianBlur stdDeviation="2.5"/>
<feComposite in2="hardAlpha" operator="out"/>
<feColorMatrix type="matrix" values="0 0 0 0 0 0 0 0 0 0 0 0 0 0 0 0 0 0 0.2 0"/>
<feBlend mode="normal" in2="BackgroundImageFix" result="effect1_dropShadow"/>
<feBlend mode="normal" in="SourceGraphic" in2="effect1_dropShadow" result="shape"/>
</filter>
<clipPath id="clip0">
<rect width="46" height="46" fill="white" transform="translate(109.438 139.305)"/>
</clipPath>
</defs>
</svg>
