<svg width="60" height="24" viewBox="0 0 60 24" fill="none" xmlns="http://www.w3.org/2000/svg">
<path d="M20.3926 8.68312H23.7136V17.5H26.2509V8.68312H29.5666V6.58285H20.3926V8.68312Z" fill="#2D2D2D"/>
<path d="M33.3906 6.58285H30.8212V17.5H33.3906V6.58285Z" fill="#2D2D2D"/>
<path d="M39.0102 17.5C42.3365 17.5 44.3941 15.4477 44.3941 12.0361C44.3941 8.62981 42.3365 6.58285 39.0155 6.58285H35.0122V17.5H39.0102ZM37.5816 15.3038V8.77907H38.8823C40.7906 8.77907 41.8141 9.66929 41.8141 12.0361C41.8141 14.4082 40.7906 15.3038 38.9089 15.3038H37.5816Z" fill="#2D2D2D"/>
<path d="M56.1273 12.0414C56.1273 8.44324 53.8564 6.43359 50.9352 6.43359C47.9927 6.43359 45.7432 8.44324 45.7432 12.0414C45.7432 15.6236 47.9927 17.6492 50.9352 17.6492C53.8564 17.6492 56.1273 15.6396 56.1273 12.0414ZM48.3659 12.0414C48.3659 9.87185 49.3414 8.69378 50.9352 8.69378C52.5291 8.69378 53.4993 9.87185 53.4993 12.0414C53.4993 14.211 52.5291 15.389 50.9352 15.389C49.3414 15.389 48.3659 14.211 48.3659 12.0414Z" fill="#2D2D2D"/>
<path d="M3.8313 17.8213L4.90005 19.0088H16.3V8.71712L15.2313 7.13379L13.45 4.75879H2.05005V15.8421L3.8313 17.8213Z" fill="#2D2D2D"/>
<circle cx="10.3005" cy="12.366" r="2.63061" fill="white"/>
<path d="M9.72724 12.2519C9.72724 10.0271 7.4413 9.50879 6.52692 9.50879H5.61255V15.2236H6.52692C7.74609 15.1474 9.72724 14.5379 9.72724 12.2519Z" fill="white"/>
<path fill-rule="evenodd" clip-rule="evenodd" d="M6.53951 15.6232H5.21265V9.1084H6.52702C7.03884 9.1084 7.91349 9.24945 8.67447 9.70184C9.45589 10.1664 10.1273 10.9706 10.1273 12.2515C10.1273 13.5327 9.56179 14.3767 8.8118 14.8951C8.08305 15.3988 7.2032 15.5818 6.55197 15.6225L6.53951 15.6232ZM6.52702 9.5084C7.4414 9.5084 9.72733 10.0268 9.72733 12.2515C9.72733 14.5375 7.74619 15.147 6.52702 15.2232H5.61265V9.5084H6.52702Z" fill="#2D2D2D"/>
</svg>
