<svg width="36" height="36" viewBox="0 0 36 36" fill="none" xmlns="http://www.w3.org/2000/svg">
<path d="M3.34884 3.34884L6.69767 0H29.3023L32.6512 3.34884L36 6.69767V29.3023L33.0698 32.2326L29.3023 36H7.53488L2.93023 32.0494L0 29.3023V6.69767L3.34884 3.34884Z" fill="#EAEAEA"/>
<path fill-rule="evenodd" clip-rule="evenodd" d="M12.7136 23.0647C13.9661 24.3172 15.9968 24.3172 17.2493 23.0647L17.8895 22.4245L18.4922 23.0272C19.7447 24.2798 21.7755 24.2798 23.028 23.0273C24.2805 21.7747 24.2805 19.744 23.028 18.4915L22.4253 17.8888L23.0652 17.2489C24.3177 15.9964 24.3177 13.9656 23.0652 12.7131C21.8126 11.4606 19.7819 11.4606 18.5294 12.7131L17.8895 13.353L17.2122 12.6756C15.9597 11.4231 13.9289 11.4231 12.6764 12.6756C11.4239 13.9282 11.4239 15.9589 12.6764 17.2114L13.3537 17.8888L12.7136 18.5289C11.461 19.7814 11.461 21.8122 12.7136 23.0647Z" fill="#D2D2D2"/>
</svg>
