<svg width="37" height="36" viewBox="0 0 37 36" fill="none" xmlns="http://www.w3.org/2000/svg">
<path d="M4.29374 3.77421L7.46638 0.601562H29.5727L32.7453 3.77421L35.918 6.94685V29.0531L33.1639 31.8072L29.5727 35.3984H8.27711L3.85154 31.6015L1.12109 29.0417V6.94685L4.29374 3.77421Z" fill="#EAEAEA" stroke="#D2D2D2" stroke-width="1.20312"/>
<path fill-rule="evenodd" clip-rule="evenodd" d="M13.2326 23.065C14.4851 24.3175 16.5159 24.3175 17.7684 23.065L18.4086 22.4248L19.0113 23.0275C20.2638 24.28 22.2945 24.28 23.547 23.0275C24.7996 21.775 24.7996 19.7442 23.547 18.4917L22.9443 17.889L23.5842 17.2491C24.8367 15.9966 24.8367 13.9659 23.5842 12.7134C22.3317 11.4608 20.3009 11.4608 19.0484 12.7134L18.4086 13.3532L17.7312 12.6759C16.4787 11.4234 14.448 11.4234 13.1954 12.6759C11.9429 13.9284 11.9429 15.9592 13.1954 17.2117L13.8728 17.889L13.2326 18.5292C11.9801 19.7817 11.9801 21.8124 13.2326 23.065Z" fill="#D2D2D2"/>
</svg>
