<svg width="28" height="28" viewBox="0 0 28 28" fill="none" xmlns="http://www.w3.org/2000/svg">
<path d="M2.93549 2.93549L5.40311 0.467882H22.5969L25.0645 2.93549L27.5321 5.40311V22.5969L25.3901 24.7389L22.5969 27.5321H6.03367L2.59155 24.5789L0.467882 22.588V5.40311L2.93549 2.93549Z" fill="#EAEAEA" stroke="#F9F9F9" stroke-width="0.935764"/>
<path fill-rule="evenodd" clip-rule="evenodd" d="M9.88736 17.9394C10.8615 18.9136 12.441 18.9136 13.4152 17.9394L13.9131 17.4415L14.3819 17.9102C15.3561 18.8844 16.9355 18.8844 17.9097 17.9102C18.8839 16.9361 18.8839 15.3566 17.9097 14.3824L17.4409 13.9136L17.9386 13.416C18.9128 12.4418 18.9128 10.8623 17.9386 9.88813C16.9644 8.91395 15.385 8.91395 14.4108 9.88814L13.9131 10.3858L13.3863 9.859C12.4121 8.88482 10.8327 8.88482 9.85847 9.859C8.88429 10.8332 8.88429 12.4126 9.85847 13.3868L10.3853 13.9136L9.88736 14.4116C8.91318 15.3857 8.91318 16.9652 9.88736 17.9394Z" fill="#D2D2D2"/>
</svg>
