<svg width="154" height="154" viewBox="0 0 154 154" fill="none" xmlns="http://www.w3.org/2000/svg">
<g clip-path="url(#clip0)">
<path d="M0 0H154V154H0V0Z" fill="#171717"/>
<mask id="mask0" mask-type="alpha" maskUnits="userSpaceOnUse" x="11" y="11" width="131" height="131">
<circle cx="76.8032" cy="76.8036" r="64.8339" fill="black"/>
</mask>
<g mask="url(#mask0)">
<rect x="5.24603" y="-12.5908" width="143.75" height="216.15" fill="black"/>
</g>
<g clip-path="url(#clip1)">
<circle cx="120.692" cy="120.691" r="20.9463" fill="#FA7449"/>
<path d="M121.725 116.837L121.874 120.009L124.546 121.724L121.374 121.873L119.659 124.545L119.51 121.373L116.838 119.659L120.01 119.509L121.725 116.837Z" fill="#171717"/>
<path fill-rule="evenodd" clip-rule="evenodd" d="M120.691 133.432C128.008 133.432 133.94 127.5 133.94 120.183C133.94 112.866 128.008 106.935 120.691 106.935C113.374 106.935 107.443 112.866 107.443 120.183C107.443 127.5 113.374 133.432 120.691 133.432ZM120.691 133.639C128.123 133.639 134.147 127.614 134.147 120.183C134.147 112.752 128.123 106.728 120.691 106.728C113.26 106.728 107.236 112.752 107.236 120.183C107.236 127.614 113.26 133.639 120.691 133.639Z" fill="#171717"/>
<path fill-rule="evenodd" clip-rule="evenodd" d="M121.026 101.803L118.967 101.868L119.069 105.147L121.145 105.082L121.131 104.653L119.553 104.703L119.522 103.703L120.974 103.658L120.961 103.231L119.508 103.276L119.477 102.281L121.039 102.233L121.026 101.803ZM114.552 102.775L116.23 104.954L116.267 104.944L116.598 102.215L117.183 102.06L118.051 105.227L117.587 105.353L116.968 103.067L116.937 103.077L116.628 105.611L116.248 105.716L114.692 103.685L114.665 103.692L115.284 105.983L114.82 106.109L113.952 102.942L114.552 102.775ZM110.475 106.541L108.918 105.821L108.458 106.152L110.581 107.091L111.326 108.141L111.733 107.851L110.988 106.802L110.804 104.489L110.34 104.817L110.506 106.519L110.475 106.541ZM105.908 108.746L106.702 107.883C107.217 107.321 107.808 107.355 108.249 107.765C108.69 108.175 108.779 108.766 108.265 109.326L107.81 109.821L108.656 110.595L108.319 110.963L105.908 108.746ZM107.92 109.076C108.248 108.718 108.183 108.387 107.911 108.136C107.638 107.886 107.306 107.853 106.982 108.211L106.561 108.675L107.502 109.54L107.92 109.076ZM104.373 110.969L103.773 111.976L106.592 113.657L106.848 113.23L105.859 112.64L106.204 112.061C106.592 111.41 106.39 110.85 105.87 110.539C105.35 110.228 104.763 110.314 104.373 110.969ZM105.611 110.97C105.93 111.159 106.062 111.472 105.814 111.886L105.494 112.422L104.395 111.767L104.714 111.233C104.963 110.816 105.293 110.782 105.611 110.97ZM105.289 117.14L102.552 114.973L102.734 114.426L106.222 114.348L106.053 114.85L105.136 114.859L104.73 116.072L105.458 116.632L105.289 117.14ZM104.695 114.87L103.215 114.884V114.908L104.387 115.809L104.695 114.87ZM101.67 119.702L101.62 120.197L104.889 120.519L104.938 120.024L103.514 119.883L103.669 118.26L105.093 118.399L105.142 117.899L101.874 117.577L101.825 118.077L103.244 118.216L103.089 119.841L101.67 119.702ZM102.379 126.022L102.116 124.878C101.944 124.135 102.271 123.674 102.863 123.54C103.053 123.482 103.256 123.486 103.442 123.553C103.629 123.62 103.788 123.746 103.897 123.911L105.027 122.908L105.154 123.461L104.095 124.389V124.417L104.25 125.073L105.458 124.796L105.57 125.282L102.379 126.022ZM103.701 124.566C103.592 124.101 103.339 123.947 102.976 124.03C102.614 124.114 102.436 124.36 102.545 124.833L102.684 125.44L103.84 125.174L103.701 124.566ZM104.884 126.755L102.937 127.684L103.154 128.134L105.063 127.224C105.466 127.031 105.887 127.171 106.1 127.62C106.314 128.069 106.159 128.485 105.757 128.677L103.847 129.588L104.061 130.039L106.007 129.11C106.631 128.818 106.851 128.135 106.512 127.425C106.173 126.715 105.503 126.458 104.884 126.755ZM137.706 128.773L137.472 129.212L134.951 127.877L134.256 129.189L133.876 128.988L134.804 127.235L137.706 128.773ZM135.938 131.79L134.646 133.398L134.31 133.129L135.29 131.909L134.516 131.29L133.606 132.422L133.272 132.152L134.183 131.02L133.409 130.393L132.419 131.631L132.083 131.362L133.386 129.74L135.938 131.79ZM131.665 136.089L133.622 134.464L133.35 134.133L132.564 134.786L130.741 132.592L130.357 132.912L132.177 135.107L131.391 135.758L131.665 136.089ZM129.584 136.003L129.926 135.795L130.534 136.796L130.19 137.004L129.584 136.003ZM128.134 137.114C128.242 137.371 128.086 137.661 127.716 137.815C127.371 137.961 127.057 137.904 126.904 137.639L126.459 137.825C126.675 138.306 127.255 138.475 127.866 138.218C128.477 137.961 128.796 137.421 128.575 136.896C128.398 136.477 127.993 136.359 127.451 136.432L127.055 136.485C126.696 136.534 126.402 136.532 126.289 136.268C126.17 135.969 126.367 135.657 126.754 135.494C127.108 135.346 127.464 135.38 127.628 135.697L128.092 135.503C127.832 134.967 127.264 134.807 126.586 135.092C125.873 135.392 125.622 135.937 125.839 136.451C126.068 136.994 126.639 137.003 127.068 136.935L127.393 136.888C127.656 136.847 128.015 136.828 128.134 137.114ZM123.322 139.469L122.154 139.573C121.396 139.64 120.982 139.217 120.93 138.614C120.877 138.01 121.211 137.517 121.968 137.45L122.638 137.391L122.538 136.245L123.033 136.201L123.322 139.469ZM122.055 137.869C121.574 137.911 121.397 138.201 121.436 138.569C121.475 138.937 121.691 139.188 122.175 139.141L122.794 139.087L122.681 137.814L122.055 137.869ZM119.73 138.04C119.873 137.001 119.34 136.285 118.492 136.172C117.65 136.058 116.944 136.607 116.8 137.647C116.656 138.687 117.192 139.4 118.038 139.514C118.885 139.629 119.586 139.078 119.73 138.04ZM117.292 137.705C117.398 136.921 117.873 136.548 118.431 136.622C118.993 136.698 119.35 137.19 119.244 137.975C119.137 138.759 118.662 139.134 118.103 139.058C117.545 138.982 117.187 138.49 117.292 137.705ZM114.08 138.083C114.458 138.222 114.768 138.12 114.865 137.857C114.975 137.567 114.701 137.335 114.48 137.184L114.21 136.995C113.851 136.752 113.437 136.353 113.646 135.8C113.841 135.277 114.396 135.051 115.122 135.321C115.812 135.577 116.117 136.082 115.939 136.653L115.475 136.478C115.572 136.134 115.335 135.859 114.976 135.732C114.582 135.577 114.224 135.678 114.111 135.977C114.012 136.247 114.226 136.45 114.522 136.659L114.848 136.891C115.294 137.211 115.507 137.575 115.348 138.004C115.15 138.538 114.546 138.714 113.924 138.483C113.302 138.253 112.996 137.73 113.168 137.232L113.619 137.399C113.539 137.694 113.729 137.951 114.08 138.083ZM109.384 136.03L111.532 137.392L111.762 137.03L110.899 136.482L112.426 134.072L112.004 133.805L110.476 136.214L109.613 135.668L109.384 136.03ZM108.456 130.531C108.993 131.194 108.889 132.078 108.074 132.74C107.258 133.403 106.371 133.314 105.833 132.649C105.294 131.984 105.398 131.102 106.214 130.439C107.029 129.777 107.919 129.87 108.456 130.531ZM108.101 130.815C107.747 130.377 107.147 130.323 106.526 130.825C105.906 131.326 105.831 131.925 106.186 132.363C106.54 132.801 107.142 132.856 107.763 132.355C108.383 131.854 108.457 131.256 108.101 130.815ZM123.344 102.004L123.852 104.706H123.89L125.421 102.424L126.016 102.546L125.354 105.761L124.89 105.666L125.367 103.344H125.336L123.915 105.466L123.53 105.387L123.066 102.872H123.038L122.56 105.194L122.095 105.098L122.756 101.882L123.344 102.004ZM126.931 104.615C126.465 105.553 126.74 106.402 127.506 106.781C128.268 107.161 129.114 106.867 129.581 105.929C130.049 104.991 129.773 104.148 129.007 103.762C128.241 103.377 127.396 103.677 126.931 104.615ZM129.139 105.709C128.783 106.424 128.213 106.625 127.709 106.374C127.201 106.116 127.019 105.548 127.375 104.833C127.731 104.118 128.3 103.919 128.805 104.169C129.309 104.42 129.495 104.994 129.139 105.709ZM131.677 105.393L132.586 106.136C133.175 106.619 133.205 107.185 132.813 107.652C132.699 107.816 132.534 107.938 132.344 107.999C132.154 108.06 131.949 108.057 131.761 107.991L131.482 109.477L131.043 109.118L131.312 107.736L131.289 107.717L130.769 107.292L129.983 108.251L129.598 107.942L131.677 105.393ZM131.523 107.354C131.897 107.663 132.188 107.621 132.422 107.334C132.655 107.046 132.648 106.741 132.267 106.435L131.786 106.04L131.034 106.959L131.523 107.354ZM132.037 110.114L132.369 110.485L134.816 108.294L134.482 107.923L132.037 110.114ZM135.802 109.495L136.938 111.216L136.579 111.453L135.717 110.148L134.887 110.696L135.687 111.911L135.331 112.146L134.53 110.933L133.694 111.484L134.565 112.802L134.208 113.039L133.061 111.304L135.802 109.495ZM137.065 113.424C137.323 113.32 137.605 113.48 137.76 113.852C137.899 114.199 137.837 114.513 137.568 114.652L137.747 115.1C138.232 114.891 138.411 114.314 138.164 113.698C137.916 113.082 137.381 112.755 136.853 112.967C136.427 113.138 136.302 113.54 136.365 114.085L136.413 114.482C136.457 114.841 136.451 115.135 136.184 115.245C135.886 115.363 135.576 115.16 135.422 114.77C135.279 114.416 135.319 114.054 135.638 113.899L135.451 113.435C134.911 113.687 134.742 114.252 135.016 114.936C135.305 115.658 135.845 115.917 136.364 115.709C136.91 115.49 136.93 114.917 136.867 114.487L136.827 114.162C136.789 113.897 136.776 113.538 137.065 113.424Z" fill="#171717"/>
</g>
<path d="M47.8773 29.948C47.8781 27.0129 47.018 24.1421 45.4036 21.6922C43.7891 19.2424 41.4916 17.3215 38.7963 16.1678C36.1011 15.0142 33.1268 14.6785 30.2428 15.2029C27.3588 15.7273 24.692 17.0886 22.5738 19.1175C20.4557 21.1463 18.9792 23.7533 18.328 26.6151C17.6767 29.4769 17.8794 32.4674 18.9106 35.2149C19.9419 37.9624 21.7561 40.3461 24.1285 42.07C26.5009 43.7938 29.3269 44.7819 32.2552 44.9115V50.8699C39.2941 46.598 44.0299 39.9734 44.0299 39.9734C46.5117 37.2263 47.8833 33.6524 47.8773 29.948Z" fill="black"/>
<path d="M25.1699 26.3241H26.5028V29.9238H27.3985V26.3241H28.7293V25.577H25.1699V26.3241Z" fill="white"/>
<path d="M30.1735 25.577H29.2714V29.9238H30.1735V25.577Z" fill="white"/>
<path d="M32.4186 29.9238C33.743 29.9238 34.5432 29.1046 34.5432 27.7462C34.5432 26.392 33.743 25.577 32.4334 25.577H30.8861V29.9238H32.4186ZM31.7882 29.1491V26.3517H32.3846C33.2081 26.3517 33.6432 26.7783 33.6432 27.7462C33.6432 28.7204 33.2081 29.1491 32.3804 29.1491H31.7882Z" fill="white"/>
<path d="M39.1577 27.7504C39.1577 26.3326 38.2768 25.5176 37.1265 25.5176C35.9697 25.5176 35.0953 26.3326 35.0953 27.7504C35.0953 29.164 35.9697 29.9833 37.1265 29.9833C38.2768 29.9833 39.1577 29.1682 39.1577 27.7504ZM36.0122 27.7504C36.0122 26.8229 36.4536 26.3178 37.1265 26.3178C37.7993 26.3178 38.2429 26.8229 38.2429 27.7504C38.2429 28.6779 37.7993 29.1831 37.1265 29.1831C36.4536 29.1831 36.0122 28.6779 36.0122 27.7504Z" fill="white"/>
<path d="M30.4676 32.5591H29.5656V36.9059H30.4676V32.5591Z" fill="white"/>
<path d="M31.0105 33.3062H32.3434V36.9059H33.2391V33.3062H34.5699V32.5591H31.0105V33.3062Z" fill="white"/>
<path d="M36.152 32.5591H35.2245L35.3051 35.6049H36.0714L36.152 32.5591ZM35.1863 36.456C35.182 36.734 35.4113 36.959 35.6893 36.959C35.9589 36.959 36.1923 36.734 36.1945 36.456C36.1923 36.1801 35.9589 35.9551 35.6893 35.9551C35.4113 35.9551 35.182 36.1801 35.1863 36.456Z" fill="white"/>
<path fill-rule="evenodd" clip-rule="evenodd" d="M32.9157 43.4894C40.4076 43.4894 46.4809 37.4161 46.4809 29.9242C46.4809 22.4323 40.4076 16.3589 32.9157 16.3589C25.4238 16.3589 19.3505 22.4323 19.3505 29.9242C19.3505 37.4161 25.4238 43.4894 32.9157 43.4894ZM32.9157 43.8884C40.6279 43.8884 46.8799 37.6364 46.8799 29.9242C46.8799 22.212 40.6279 15.96 32.9157 15.96C25.2035 15.96 18.9515 22.212 18.9515 29.9242C18.9515 37.6364 25.2035 43.8884 32.9157 43.8884Z" fill="white" fill-opacity="0.21"/>
<rect x="56.9969" y="50.7025" width="103.203" height="122.989" fill="white"/>
<path d="M72.9168 85.2064H68.6398V91.0549H69.3469C70.9764 91.0514 72.1687 91.0036 73.5351 90.785L73.4429 90.0369C72.1516 90.2452 71.0584 90.3033 69.5451 90.3067V88.3698H72.5888V87.6387H69.5451V85.9648H72.9168V85.2064ZM74.3823 93.1011H75.3047V84.4446H74.3823V93.1011ZM83.6704 88.4415H78.5599V85.8589H83.5953V85.1176H77.6444V89.176H80.145V91.2837H76.6605V92.0421H84.5825V91.2837H81.0537V89.176H83.6704V88.4415ZM87.8104 84.9912C86.4473 84.9981 85.4703 85.8384 85.4772 87.0546C85.4703 88.1341 86.2355 88.9129 87.356 89.0769V90.4809C86.5498 90.5014 85.7744 90.5049 85.1014 90.5083L85.2415 91.2632C86.748 91.2803 88.7601 91.2667 90.5877 90.9455L90.5228 90.2589C89.8054 90.3546 89.0368 90.4126 88.2716 90.4468V89.0769C89.3613 88.9061 90.1299 88.1272 90.1368 87.0546C90.1299 85.8384 89.1393 84.9981 87.8104 84.9912ZM86.3722 87.0546C86.3654 86.2825 86.9768 85.7804 87.8104 85.7735C88.6268 85.7804 89.2315 86.2825 89.2383 87.0546C89.2315 87.8232 88.6268 88.3356 87.8104 88.3288C86.9768 88.3356 86.3654 87.8232 86.3722 87.0546ZM91.0455 93.1011H91.961V88.7353H93.2933V87.9598H91.961V84.4446H91.0455V93.1011ZM102.978 84.4446H102.059V89.6611H102.978V87.4679H104.231V86.689H102.978V84.4446ZM96.1865 86.0605H101.338V85.3192H99.2234V84.3832H98.3113V85.3192H96.1865V86.0605ZM96.6579 87.9838C96.6545 88.9198 97.5017 89.5313 98.7657 89.5347C100.013 89.5313 100.86 88.9198 100.863 87.9838C100.86 87.058 100.013 86.4362 98.7657 86.4362C97.5017 86.4362 96.6545 87.058 96.6579 87.9838ZM97.4436 92.9918H102.978V90.1154H97.4436V92.9918ZM97.5427 87.9838C97.5358 87.4645 98.0278 87.1366 98.7657 87.1366C99.4967 87.1366 99.9886 87.4645 99.9955 87.9838C99.9886 88.5167 99.4967 88.8378 98.7657 88.8412C98.0278 88.8378 97.5358 88.5167 97.5427 87.9838ZM98.3455 92.2471V90.8465H102.069V92.2471H98.3455ZM106.865 85.4729H104.904V86.221H106.069C106.011 87.8505 105.707 89.3536 104.692 90.7064L105.413 91.1061C106.619 89.4151 106.862 87.4064 106.865 85.4729ZM106.639 91.2222L107.35 91.6322C108.02 90.6893 108.382 89.6201 108.573 88.544H109.697V92.6809H110.565V84.6667H109.697V87.7959H108.682C108.775 86.9931 108.792 86.204 108.795 85.4729H107.135V86.221H108.003C107.965 87.8984 107.757 89.7123 106.639 91.2222ZM111.333 93.1011H112.215V84.4446H111.333V93.1011ZM122.873 84.4446H121.954V89.4629H122.873V84.4446ZM115.805 86.0707H121.096V85.3363H118.92V84.3797H117.991V85.3363H115.805V86.0707ZM116.317 87.9291C116.31 88.8378 117.154 89.4185 118.459 89.4185C119.747 89.4185 120.598 88.8378 120.598 87.9291C120.598 86.9999 119.747 86.4192 118.459 86.4192C117.154 86.4192 116.31 86.9999 116.317 87.9291ZM117.195 87.9291C117.188 87.4167 117.684 87.1092 118.459 87.1161C119.224 87.1092 119.72 87.4167 119.726 87.9291C119.72 88.4347 119.224 88.7319 118.459 88.7319C117.684 88.7319 117.188 88.4347 117.195 87.9291ZM117.205 92.9918H122.873V89.849H121.961V90.6859H118.104V89.849H117.205V92.9918ZM118.104 92.2573V91.3999H121.961V92.2573H118.104ZM130.986 84.4446H130.077V93.1011H130.986V88.7148H132.373V87.953H130.986V84.4446ZM124.194 86.549H129.322V85.8008H127.245V84.5574H126.329V85.8008H124.194V86.549ZM124.638 89.2033C124.635 90.3887 125.544 91.212 126.794 91.2154C128.031 91.212 128.939 90.3887 128.943 89.2033C128.939 88.0213 128.031 87.1878 126.794 87.1878C125.544 87.1878 124.635 88.0213 124.638 89.2033ZM125.516 89.2033C125.51 88.4586 126.053 87.9462 126.794 87.9462C127.525 87.9462 128.061 88.4586 128.068 89.2033C128.061 89.9514 127.525 90.4536 126.794 90.4502C126.053 90.4536 125.51 89.9514 125.516 89.2033ZM140.233 84.4446H139.362V93.1011H140.233V84.4446ZM132.758 90.6005L133.288 91.253C134.504 90.5424 135.327 89.6611 135.843 88.6602H137.537V92.6809H138.405V84.6667H137.537V87.9257H136.161C136.424 87.1741 136.543 86.3679 136.547 85.5207H133.168V86.2757H135.631C135.477 88.0521 134.596 89.5108 132.758 90.6005ZM75.3047 99.4446H74.3823V108.101H75.3047V99.4446ZM68.1923 105.782L68.6774 106.523C71.6494 105.105 72.7255 102.909 72.7323 100.377H68.6125V101.108H71.7963C71.6153 103.127 70.4948 104.688 68.1923 105.782ZM84.5689 104.169H81.0605V103.349H83.749V102.628H78.5735V101.826H83.5713V99.6462H77.6409V100.374H82.6558V101.146H77.6648V103.349H80.1586V104.169H76.6468V104.917H84.5689V104.169ZM77.535 106.256H82.6968V108.033H83.6192V105.519H77.535V106.256ZM92.0122 99.4173H91.0933V104.176H92.0122V102.195H93.2728V101.446H92.0122V99.4173ZM85.221 100.9H90.3725V100.183H88.2579V99.3661H87.3458V100.183H85.221V100.9ZM85.6924 102.649C85.689 103.534 86.5259 104.067 87.8001 104.067C89.0675 104.067 89.8942 103.534 89.8976 102.649C89.8942 101.778 89.0675 101.231 87.8001 101.231C86.5259 101.231 85.689 101.778 85.6924 102.649ZM86.4132 105.266H91.1001V105.946H86.4337V108.019H92.306V107.322H87.3355V106.598H92.0122V104.589H86.4132V105.266ZM86.5772 102.649C86.5703 102.184 87.052 101.894 87.8001 101.894C88.5414 101.894 89.0231 102.184 89.0299 102.649C89.0231 103.12 88.5414 103.394 87.8001 103.397C87.052 103.394 86.5703 103.12 86.5772 102.649ZM100.638 99.4446H99.7221V108.101H100.638V103.722H101.898V102.96H100.638V99.4446ZM93.6755 105.665L94.41 106.181C95.9746 104.507 96.364 102.536 96.3708 100.37H93.9898V101.129H95.4963C95.4041 102.861 94.9429 104.35 93.6755 105.665ZM96.1522 106.243L96.8901 106.752C98.4786 104.869 98.7519 102.564 98.7587 100.37H96.651V101.129H97.891C97.8193 102.974 97.4435 104.743 96.1522 106.243ZM110.233 106.263H108.334V103.981C109.031 103.588 109.451 102.977 109.451 102.212C109.451 100.849 108.112 99.9536 106.25 99.9468C104.395 99.9536 103.059 100.849 103.059 102.212C103.059 102.987 103.493 103.609 104.207 103.998V106.263H102.311V107.022H110.233V106.263ZM103.951 102.212C103.951 101.276 104.894 100.681 106.25 100.688C107.599 100.681 108.556 101.276 108.556 102.212C108.556 103.137 107.599 103.742 106.25 103.742C104.894 103.742 103.951 103.137 103.951 102.212ZM105.109 106.263V104.337C105.457 104.415 105.84 104.46 106.25 104.46C106.663 104.46 107.053 104.415 107.408 104.333V106.263H105.109ZM112.255 105.204V105.266H113.239V105.204C113.253 104.419 113.478 104.067 114.059 103.715C114.674 103.339 115.046 102.82 115.046 102.051C115.046 100.941 114.206 100.189 112.949 100.189C111.801 100.189 110.872 100.862 110.831 102.092H111.872C111.917 101.378 112.426 101.057 112.945 101.057C113.526 101.057 113.994 101.44 113.994 102.041C113.994 102.553 113.68 102.909 113.273 103.161C112.638 103.551 112.265 103.937 112.255 105.204ZM112.091 106.663C112.084 107.039 112.399 107.346 112.774 107.346C113.147 107.346 113.461 107.039 113.461 106.663C113.461 106.287 113.147 105.98 112.774 105.98C112.399 105.98 112.084 106.287 112.091 106.663Z" fill="#2D2D2D"/>
<rect x="62.19" y="55.8956" width="92.8154" height="113.051" stroke="black" stroke-width="0.269812"/>
<path d="M68.1249 68.4678H81.3955" stroke="black" stroke-width="0.937155"/>
<path d="M74.7607 61.832L74.7607 75.1026" stroke="black" stroke-width="0.937155"/>
<path d="M79.4517 63.7754L70.068 73.1591" stroke="black" stroke-width="0.937155"/>
<path d="M79.4517 73.1592L70.068 63.7755" stroke="black" stroke-width="0.937155"/>
<rect x="56.9969" y="50.7025" width="103.203" height="122.989" stroke="#D2D2D2" stroke-width="0.674531"/>
<g clip-path="url(#clip2)">
<circle cx="49.6973" cy="129.304" r="17.6973" fill="#FA7449"/>
<path d="M50.57 126.047L50.6959 128.727L52.9535 130.176L50.2739 130.302L48.825 132.559L48.6991 129.88L46.4414 128.431L49.1211 128.305L50.57 126.047Z" fill="#171717"/>
<path fill-rule="evenodd" clip-rule="evenodd" d="M49.6971 140.068C55.8791 140.068 60.8906 135.056 60.8906 128.874C60.8906 122.692 55.8791 117.681 49.6971 117.681C43.5151 117.681 38.5036 122.692 38.5036 128.874C38.5036 135.056 43.5151 140.068 49.6971 140.068ZM49.6971 140.243C55.9757 140.243 61.0655 135.153 61.0655 128.874C61.0655 122.596 55.9757 117.506 49.6971 117.506C43.4185 117.506 38.3287 122.596 38.3287 128.874C38.3287 135.153 43.4185 140.243 49.6971 140.243Z" fill="#171717"/>
<path fill-rule="evenodd" clip-rule="evenodd" d="M49.9799 113.345L48.2397 113.4L48.326 116.17L50.0805 116.115L50.0687 115.753L48.7352 115.795L48.709 114.95L49.9354 114.912L49.9249 114.551L48.6973 114.589L48.6711 113.749L49.9903 113.708L49.9799 113.345ZM44.5103 114.166L45.9275 116.007L45.9589 115.999L46.2387 113.693L46.7329 113.562L47.4663 116.238L47.0741 116.344L46.5512 114.413L46.525 114.421L46.2635 116.562L45.9432 116.651L44.6279 114.935L44.6057 114.941L45.1287 116.876L44.7365 116.983L44.003 114.307L44.5103 114.166ZM41.065 117.348L39.7498 116.74L39.3615 117.02L41.1552 117.813L41.784 118.699L42.1279 118.455L41.499 117.569L41.3435 115.614L40.9513 115.891L41.0911 117.329L41.065 117.348ZM37.2069 119.211L37.8776 118.481C38.3129 118.007 38.8124 118.036 39.185 118.382C39.5576 118.729 39.6321 119.228 39.1981 119.701L38.8137 120.12L39.5288 120.773L39.2438 121.084L37.2069 119.211ZM38.9065 119.489C39.1837 119.187 39.1288 118.908 38.8987 118.696C38.6686 118.484 38.3875 118.457 38.1142 118.759L37.7587 119.151L38.5535 119.882L38.9065 119.489ZM35.9102 121.089L35.4029 121.94L37.785 123.36L38.0007 122.999L37.1653 122.501L37.4568 122.012C37.785 121.462 37.6137 120.988 37.1744 120.726C36.7351 120.463 36.2397 120.536 35.9102 121.089ZM36.9561 121.09C37.2254 121.25 37.3366 121.514 37.1274 121.864L36.8567 122.317L35.9285 121.764L36.1978 121.313C36.4083 120.96 36.6868 120.931 36.9561 121.09ZM36.6837 126.303L34.3709 124.472L34.5252 124.01L37.472 123.944L37.3295 124.368L36.5542 124.376L36.2117 125.401L36.8262 125.874L36.6837 126.303ZM36.1817 124.385L34.9318 124.397V124.417L35.9215 125.178L36.1817 124.385ZM33.626 128.467L33.5842 128.886L36.3454 129.158L36.3872 128.739L35.1844 128.62L35.3151 127.249L36.5179 127.367L36.5598 126.944L33.7986 126.672L33.7567 127.095L34.9556 127.212L34.8248 128.585L33.626 128.467ZM34.2252 133.807L34.003 132.841C33.8579 132.213 34.1337 131.824 34.6344 131.71C34.7943 131.661 34.9659 131.665 35.1233 131.721C35.2808 131.778 35.4156 131.884 35.5078 132.024L36.4621 131.177L36.5694 131.643L35.6751 132.428V132.451L35.8058 133.006L36.8269 132.772L36.921 133.182L34.2252 133.807ZM35.3417 132.577C35.2502 132.185 35.0358 132.054 34.7298 132.124C34.4239 132.195 34.2735 132.403 34.3651 132.803L34.4828 133.315L35.4594 133.091L35.3417 132.577ZM36.3415 134.427L34.6968 135.211L34.8799 135.592L36.4932 134.823C36.8331 134.659 37.1887 134.778 37.3691 135.158C37.5495 135.537 37.4188 135.888 37.0789 136.05L35.4656 136.821L35.646 137.201L37.2907 136.417C37.8175 136.169 38.0032 135.593 37.7169 134.993C37.4306 134.393 36.8645 134.176 36.3415 134.427ZM64.072 136.131L63.8746 136.503L61.7448 135.374L61.1578 136.483L60.8362 136.313L61.6206 134.832L64.072 136.131ZM62.5786 138.681L61.4869 140.039L61.2032 139.812L62.0308 138.781L61.3771 138.258L60.6084 139.214L60.3259 138.987L61.096 138.03L60.4423 137.5L59.6056 138.546L59.3219 138.319L60.4227 136.948L62.5786 138.681ZM58.9684 142.313L60.6222 140.94L60.3921 140.66L59.7279 141.212L58.1878 139.358L57.8636 139.629L59.4011 141.483L58.737 142.033L58.9684 142.313ZM57.2101 142.24L57.4991 142.065L58.0129 142.91L57.7226 143.086L57.2101 142.24ZM55.985 143.179C56.0765 143.396 55.9444 143.641 55.632 143.771C55.3404 143.894 55.075 143.846 54.9456 143.622L54.5704 143.779C54.7521 144.186 55.2424 144.328 55.7588 144.111C56.2752 143.894 56.5446 143.438 56.3576 142.995C56.2086 142.64 55.866 142.541 55.4084 142.602L55.0737 142.647C54.7704 142.689 54.522 142.687 54.4266 142.464C54.3259 142.212 54.492 141.947 54.8188 141.81C55.1182 141.685 55.4189 141.713 55.5575 141.981L55.9497 141.818C55.73 141.364 55.2502 141.23 54.6776 141.47C54.0749 141.724 53.8631 142.184 54.0461 142.618C54.2396 143.077 54.722 143.085 55.0842 143.027L55.3587 142.988C55.581 142.953 55.8843 142.937 55.985 143.179ZM51.9196 145.169L50.9326 145.257C50.292 145.313 49.9429 144.956 49.8984 144.446C49.854 143.936 50.1364 143.519 50.7757 143.463L51.3418 143.413L51.2568 142.444L51.6751 142.408L51.9196 145.169ZM50.8489 143.817C50.4423 143.852 50.2933 144.097 50.3259 144.408C50.3586 144.719 50.5416 144.931 50.9508 144.892L51.4738 144.846L51.3784 143.77L50.8489 143.817ZM48.8843 143.961C49.0059 143.084 48.5548 142.478 47.8384 142.383C47.1272 142.286 46.531 142.75 46.4094 143.629C46.2878 144.507 46.7401 145.11 47.4553 145.207C48.1704 145.304 48.7627 144.838 48.8843 143.961ZM46.8251 143.678C46.914 143.016 47.3154 142.701 47.7874 142.763C48.2619 142.827 48.564 143.243 48.4737 143.906C48.3835 144.569 47.9822 144.885 47.5102 144.821C47.0382 144.757 46.7362 144.341 46.8251 143.678ZM44.1115 143.997C44.4305 144.115 44.692 144.029 44.7743 143.806C44.8671 143.562 44.6358 143.366 44.4488 143.238L44.2213 143.078C43.918 142.873 43.5676 142.536 43.7441 142.069C43.9088 141.627 44.3782 141.436 44.9914 141.663C45.5745 141.88 45.832 142.307 45.6816 142.789L45.2894 142.641C45.3718 142.351 45.1718 142.118 44.8685 142.011C44.5351 141.881 44.233 141.966 44.1376 142.218C44.0539 142.447 44.2344 142.618 44.4841 142.794L44.76 142.99C45.1365 143.261 45.3169 143.568 45.1822 143.93C45.0149 144.382 44.505 144.531 43.9794 144.336C43.4538 144.141 43.195 143.699 43.3402 143.278L43.7219 143.419C43.6539 143.669 43.8147 143.886 44.1115 143.997ZM40.1433 142.263L41.9579 143.413L42.1528 143.107L41.4232 142.645L42.7136 140.609L42.3567 140.383L41.0663 142.418L40.3368 141.957L40.1433 142.263ZM39.3593 137.616C39.8129 138.177 39.7253 138.924 39.0363 139.483C38.3473 140.043 37.5982 139.969 37.1432 139.406C36.6882 138.844 36.7758 138.099 37.4648 137.539C38.1538 136.98 38.9056 137.058 39.3593 137.616ZM39.0599 137.857C38.7605 137.487 38.2532 137.441 37.7289 137.865C37.2046 138.289 37.1419 138.794 37.4413 139.164C37.7407 139.534 38.2493 139.581 38.7735 139.158C39.2978 138.734 39.3606 138.23 39.0599 137.857ZM51.9382 113.515L52.367 115.798H52.3997L53.6927 113.869L54.1961 113.973L53.6365 116.689L53.2443 116.608L53.647 114.647H53.6208L52.4206 116.44L52.0951 116.373L51.7029 114.249H51.6794L51.2753 116.21L50.8831 116.129L51.4414 113.412L51.9382 113.515ZM54.9684 115.721C54.5749 116.513 54.8076 117.231 55.4547 117.551C56.098 117.871 56.8131 117.623 57.208 116.831C57.6028 116.039 57.3701 115.326 56.7229 115C56.0758 114.675 55.3619 114.929 54.9684 115.721ZM56.8341 116.645C56.5334 117.249 56.0522 117.419 55.626 117.207C55.1972 116.989 55.043 116.509 55.3437 115.905C55.6444 115.301 56.1254 115.132 56.5516 115.344C56.9779 115.556 57.1348 116.041 56.8341 116.645ZM58.9788 116.378L59.7462 117.006C60.2444 117.414 60.2692 117.892 59.9385 118.287C59.8418 118.425 59.7026 118.528 59.5421 118.58C59.3816 118.631 59.2085 118.629 59.0494 118.573L58.8141 119.828L58.4428 119.525L58.6703 118.358L58.6507 118.342L58.2114 117.982L57.5472 118.793L57.2217 118.531L58.9788 116.378ZM58.8481 118.035C59.1644 118.296 59.4102 118.261 59.6077 118.018C59.8051 117.775 59.7985 117.517 59.4769 117.258L59.0703 116.925L58.435 117.701L58.8481 118.035ZM59.2824 120.367L59.5635 120.681L61.6305 118.829L61.3481 118.515L59.2824 120.367ZM62.4636 119.844L63.4232 121.298L63.1199 121.498L62.3917 120.396L61.6909 120.859L62.3668 121.885L62.0661 122.084L61.3889 121.059L60.6829 121.524L61.419 122.638L61.117 122.838L60.1482 121.373L62.4636 119.844ZM63.5307 123.163C63.749 123.076 63.9869 123.21 64.1177 123.525C64.2354 123.818 64.1831 124.084 63.9556 124.201L64.1072 124.579C64.5164 124.403 64.6681 123.915 64.459 123.395C64.2498 122.874 63.7974 122.598 63.3516 122.778C62.992 122.921 62.8862 123.261 62.9398 123.722L62.9803 124.057C63.0169 124.361 63.0117 124.609 62.7868 124.702C62.5345 124.801 62.273 124.63 62.1422 124.301C62.022 124.001 62.0559 123.695 62.3253 123.565L62.1671 123.172C61.7108 123.385 61.5683 123.863 61.7997 124.441C62.0442 125.051 62.5004 125.269 62.9384 125.094C63.3999 124.909 63.4169 124.425 63.3633 124.061L63.3294 123.787C63.298 123.563 63.2862 123.26 63.5307 123.163Z" fill="#171717"/>
</g>
</g>
<path d="M0 0V-1H-1V0H0ZM154 0H155V-1H154V0ZM154 154V155H155V154H154ZM0 154H-1V155H0V154ZM0 1H154V-1H0V1ZM153 0V154H155V0H153ZM154 153H0V155H154V153ZM1 154V0H-1V154H1Z" fill="#171717"/>
<defs>
<clipPath id="clip0">
<path d="M0 0H154V154H0V0Z" fill="white"/>
</clipPath>
<clipPath id="clip1">
<rect width="41.8927" height="41.8927" fill="white" transform="translate(99.7453 99.7451)"/>
</clipPath>
<clipPath id="clip2">
<rect width="35.3945" height="35.3945" fill="white" transform="translate(32 111.606)"/>
</clipPath>
</defs>
</svg>
