<svg width="18" height="18" viewBox="0 0 18 18" fill="none" xmlns="http://www.w3.org/2000/svg">
<path fill-rule="evenodd" clip-rule="evenodd" d="M1.95173 15.7533C3.62176 17.4233 6.32941 17.4233 7.99944 15.7533L8.85268 14.9L9.65597 15.7033C11.326 17.3734 14.0337 17.3734 15.7037 15.7033C17.3737 14.0333 17.3737 11.3256 15.7037 9.65562L14.9004 8.85232L15.7539 7.99885C17.4239 6.32882 17.4239 3.62116 15.7539 1.95114C14.0838 0.281107 11.3762 0.281106 9.70616 1.95114L8.85268 2.80461L7.94926 1.90119C6.27923 0.231159 3.57158 0.231159 1.90155 1.90119C0.231517 3.57122 0.231518 6.27887 1.90155 7.9489L2.80497 8.85232L1.95173 9.70556C0.281703 11.3756 0.281702 14.0832 1.95173 15.7533Z" fill="#D2D2D2"/>
</svg>
