<svg width="154" height="154" viewBox="0 0 154 154" fill="none" xmlns="http://www.w3.org/2000/svg">
<g clip-path="url(#clip0)">
<rect width="154" height="154" fill="#2D2D2D"/>
<rect opacity="0.9" width="155" height="154" fill="#171717"/>
<path d="M15.3111 26.5372C18.4935 26.5372 20.4202 24.1069 20.4202 19.9115C20.4265 15.7533 18.4872 13.3604 15.3111 13.3604C12.135 13.3604 10.2082 15.7409 10.202 19.9115C10.1896 24.0945 12.1226 26.5309 15.3111 26.5372ZM15.3111 24.3369C13.8381 24.3369 12.8871 22.8576 12.8933 19.9115C12.8995 17.0026 13.8443 15.5358 15.3111 15.5358C16.778 15.5358 17.7227 17.0026 17.7289 19.9115C17.7289 22.8576 16.7842 24.3369 15.3111 24.3369ZM27.1939 26.5372C30.3763 26.5372 32.3031 24.1069 32.3031 19.9115C32.3093 15.7533 30.37 13.3604 27.1939 13.3604C24.0178 13.3604 22.091 15.7409 22.0848 19.9115C22.0724 24.0945 24.0054 26.5309 27.1939 26.5372ZM27.1939 24.3369C25.7209 24.3369 24.7699 22.8576 24.7761 19.9115C24.7823 17.0026 25.7271 15.5358 27.1939 15.5358C28.6608 15.5358 29.6055 17.0026 29.6118 19.9115C29.6118 22.8576 28.667 24.3369 27.1939 24.3369Z" fill="#F9F9F9"/>
<rect x="46" y="52" width="115" height="115" fill="white"/>
<path d="M64.5931 95.8199H65.5155V87.1634H64.5931V95.8199ZM59.7559 91.0885H62.7997V90.3575H59.7559V88.6836H63.1276V87.9252H58.8506V93.7736H59.5578C61.1873 93.7702 62.3795 93.7224 63.7459 93.5037L63.6537 92.7556C62.3624 92.964 61.2692 93.0221 59.7559 93.0255V91.0885ZM71.2645 91.8947H73.8812V91.1603H68.7707V88.5777H73.8061V87.8364H67.8552V91.8947H70.3558V94.0025H66.8713V94.7609H74.7933V94.0025H71.2645V91.8947ZM82.1718 90.6786V87.1634H81.2563V95.8199H82.1718V91.4541H83.5041V90.6786H82.1718ZM78.4824 91.7957C79.5721 91.6249 80.3408 90.846 80.3476 89.7733C80.3408 88.5572 79.3501 87.7168 78.0212 87.71C76.6582 87.7168 75.6812 88.5572 75.688 89.7733C75.6812 90.8528 76.4464 91.6317 77.5669 91.7957V93.1997C76.7606 93.2202 75.9852 93.2236 75.3122 93.227L75.4523 93.982C76.9588 93.9991 78.9709 93.9854 80.7985 93.6643L80.7336 92.9776C80.0162 93.0733 79.2476 93.1314 78.4824 93.1655V91.7957ZM76.583 89.7733C76.5762 89.0013 77.1877 88.4991 78.0212 88.4923C78.8377 88.4991 79.4423 89.0013 79.4491 89.7733C79.4423 90.5419 78.8377 91.0544 78.0212 91.0475C77.1877 91.0544 76.5762 90.5419 76.583 89.7733ZM89.4342 88.0379V87.1019H88.5221V88.0379H86.3973V88.7792H91.5488V88.0379H89.4342ZM93.1886 89.4078V87.1634H92.2696V92.3798H93.1886V90.1867H94.4423V89.4078H93.1886ZM91.074 90.7025C91.0706 89.7767 90.2234 89.155 88.9765 89.155C87.7125 89.155 86.8653 89.7767 86.8687 90.7025C86.8653 91.6385 87.7125 92.25 88.9765 92.2534C90.2234 92.25 91.0706 91.6385 91.074 90.7025ZM87.7535 90.7025C87.7467 90.1833 88.2386 89.8553 88.9765 89.8553C89.7075 89.8553 90.1994 90.1833 90.2063 90.7025C90.1994 91.2354 89.7075 91.5565 88.9765 91.56C88.2386 91.5565 87.7467 91.2354 87.7535 90.7025ZM93.1886 95.7106V92.8342H87.6544V95.7106H93.1886ZM92.2799 93.5652V94.9658H88.5563V93.5652H92.2799ZM101.544 95.8199H102.425V87.1634H101.544V95.8199ZM98.8931 90.5146C98.9854 89.7118 99.0024 88.9227 99.0059 88.1916H97.3456V88.9398H98.2133C98.1757 90.6171 97.9674 92.4311 96.8503 93.941L97.5608 94.3509C98.2304 93.4081 98.5925 92.3388 98.7838 91.2628H99.9077V95.3997H100.775V87.3854H99.9077V90.5146H98.8931ZM97.0757 88.1916H95.1149V88.9398H96.2798C96.2217 90.5693 95.9177 92.0724 94.9031 93.4252L95.6239 93.8249C96.8298 92.1339 97.0723 90.1252 97.0757 88.1916ZM112.165 92.0758H113.083V87.1702H112.165V92.0758ZM108.588 89.8143C108.981 90.6991 109.736 91.3823 110.74 91.7103L111.194 91.01C109.879 90.5693 109.042 89.5103 109.049 88.3454V87.5016H108.11V88.3454C108.11 89.5547 107.293 90.7025 105.937 91.1569L106.398 91.8811C107.433 91.5155 108.198 90.7606 108.588 89.8143ZM113.083 95.7106V92.5404H107.392V95.7106H113.083ZM112.182 93.2749V94.9658H108.297V93.2749H112.182ZM115.211 89.6196V90.3199H121.565V89.6196H120.342V88.1233H121.603V87.423H115.174V88.1233H116.438V89.6196H115.211ZM117.35 89.6196V88.1233H119.423V89.6196H117.35ZM114.453 91.6898H122.344V90.9587H114.453V91.6898ZM121.343 94.3407V92.3662H115.392V93.0426H120.441V93.6916H115.409V95.7379H121.593V95.041H116.308V94.3407H121.343ZM129.747 90.6718V87.1634H128.838V95.8199H129.747V91.4336H131.134V90.6718H129.747ZM125.09 87.2761V88.5196H122.955V89.2677H128.083V88.5196H126.006V87.2761H125.09ZM125.555 89.9065C124.305 89.9065 123.396 90.7401 123.399 91.9221C123.396 93.1075 124.305 93.9308 125.555 93.9342C126.792 93.9308 127.7 93.1075 127.704 91.9221C127.7 90.7401 126.792 89.9065 125.555 89.9065ZM125.555 93.169C124.814 93.1724 124.271 92.6702 124.277 91.9221C124.271 91.1773 124.814 90.6649 125.555 90.6649C126.286 90.6649 126.822 91.1773 126.829 91.9221C126.822 92.6702 126.286 93.1724 125.555 93.169ZM138.123 95.8199H138.994V87.1634H138.123V95.8199ZM134.922 90.6444C135.185 89.8929 135.304 89.0867 135.308 88.2395H131.929V88.9944H134.392C134.238 90.7708 133.357 92.2295 131.519 93.3193L132.049 93.9717C133.265 93.2612 134.088 92.3798 134.604 91.3789H136.298V95.3997H137.166V87.3854H136.298V90.6444H134.922ZM64.5931 110.82H65.5155V102.163H64.5931V110.82ZM58.8233 103.096V103.827H62.0071C61.8261 105.846 60.7056 107.407 58.4031 108.5L58.8882 109.242C61.8602 107.824 62.9363 105.627 62.9431 103.096H58.8233ZM71.2713 106.068H73.9598V105.347H68.7844V104.544H73.7822V102.365H67.8518V103.093H72.8666V103.865H67.8757V106.068H70.3694V106.888H66.8577V107.636H74.7797V106.888H71.2713V106.068ZM72.9076 108.975V110.752H73.83V108.237H67.7459V108.975H72.9076ZM78.4687 102.901V102.085H77.5566V102.901H75.4318V103.619H80.5833V102.901H78.4687ZM82.223 102.136H81.3041V106.895H82.223V104.913H83.4836V104.165H82.223V102.136ZM80.1085 105.368C80.105 104.497 79.2783 103.95 78.011 103.95C76.7367 103.95 75.8998 104.497 75.9032 105.368C75.8998 106.253 76.7367 106.785 78.011 106.785C79.2783 106.785 80.105 106.253 80.1085 105.368ZM76.788 105.368C76.7811 104.903 77.2628 104.613 78.011 104.613C78.7523 104.613 79.2339 104.903 79.2408 105.368C79.2339 105.839 78.7523 106.112 78.011 106.116C77.2628 106.112 76.7811 105.839 76.788 105.368ZM82.223 109.317V107.308H76.624V107.984H81.3109V108.664H76.6445V110.738H82.5168V110.041H77.5464V109.317H82.223ZM90.8484 105.679V102.163H89.9329V110.82H90.8484V106.44H92.109V105.679H90.8484ZM86.5817 103.089H84.2006V103.848H85.7071C85.6149 105.58 85.1537 107.069 83.8863 108.384L84.6208 108.9C86.1854 107.226 86.5748 105.255 86.5817 103.089ZM86.8618 103.089V103.848H88.1018C88.0301 105.692 87.6543 107.462 86.363 108.961L87.1009 109.47C88.6894 107.588 88.9627 105.282 88.9695 103.089H86.8618ZM98.5446 106.7C99.2415 106.307 99.6616 105.696 99.6616 104.93C99.6616 103.567 98.3225 102.672 96.4607 102.666C94.6058 102.672 93.2701 103.567 93.2701 104.93C93.2701 105.706 93.7039 106.328 94.4179 106.717V108.982H92.5219V109.74H100.444V108.982H98.5446V106.7ZM96.4607 103.407C97.8101 103.4 98.7666 103.994 98.7666 104.93C98.7666 105.856 97.8101 106.461 96.4607 106.461C95.1045 106.461 94.1617 105.856 94.1617 104.93C94.1617 103.994 95.1045 103.4 96.4607 103.407ZM95.3197 107.055C95.6682 107.134 96.0508 107.178 96.4607 107.178C96.8741 107.178 97.2635 107.134 97.6188 107.052V108.982H95.3197V107.055ZM103.481 107.984V107.923C103.491 107.137 103.716 106.785 104.297 106.434C104.912 106.058 105.284 105.539 105.284 104.77C105.284 103.66 104.444 102.908 103.187 102.908C102.039 102.908 101.11 103.581 101.069 104.811H102.114C102.158 104.097 102.664 103.776 103.183 103.776C103.764 103.776 104.232 104.158 104.232 104.76C104.232 105.272 103.918 105.627 103.511 105.88C102.876 106.27 102.503 106.656 102.493 107.923V107.984H103.481ZM103.016 110.065C103.388 110.065 103.699 109.757 103.703 109.382C103.699 109.006 103.388 108.698 103.016 108.698C102.64 108.698 102.326 109.006 102.333 109.382C102.326 109.757 102.64 110.065 103.016 110.065Z" fill="#2D2D2D"/>
<rect x="0.5" y="0.5" width="153" height="153" stroke="#171717"/>
<path d="M63.942 74.2735C67.1243 74.2735 69.0511 71.8432 69.0511 67.6478C69.0573 63.4896 67.1181 61.0967 63.942 61.0967C60.7659 61.0967 58.8391 63.4772 58.8329 67.6478C58.8204 71.8308 60.7535 74.2673 63.942 74.2735ZM63.942 72.0732C62.4689 72.0732 61.518 70.5939 61.5242 67.6478C61.5304 64.739 62.4751 63.2721 63.942 63.2721C65.4088 63.2721 66.3536 64.739 66.3598 67.6478C66.3598 70.5939 65.4151 72.0732 63.942 72.0732ZM73.8731 61.2707L70.7219 63.2721V65.6215L73.6432 63.788H73.7178V74H76.3655V61.2707H73.8731Z" fill="#2D2D2D"/>
</g>
<defs>
<clipPath id="clip0">
<rect width="154" height="154" fill="white"/>
</clipPath>
</defs>
</svg>
