<svg width="38" height="44" viewBox="0 0 38 44" fill="none" xmlns="http://www.w3.org/2000/svg">
<path d="M35.9804 22.3104C35.9804 23.3578 33.3894 24.1478 33.1964 25.1309C33.0035 26.114 35.0847 27.8597 34.6942 28.8061C34.3037 29.7524 31.607 29.4907 31.019 30.3406C30.431 31.1905 31.7217 33.5792 30.9959 34.3005C30.27 35.0217 27.8905 33.7539 27.0361 34.3236C26.1816 34.8932 26.4571 37.5853 25.5015 37.9987C24.546 38.4122 22.8554 36.299 21.8263 36.4965C20.7973 36.694 20.0532 39.285 19.0058 39.285C17.9584 39.285 17.1681 36.694 16.1895 36.4965C15.211 36.299 13.4607 38.3846 12.5144 37.9987C11.568 37.6128 11.8298 34.9116 10.9845 34.3236C10.1392 33.7355 7.74584 35.0263 7.01999 34.3005C6.29414 33.5746 7.57136 31.1951 6.99711 30.3406C6.42286 29.4861 3.7399 29.7616 3.34482 28.8061C2.94973 27.8505 5.0447 26.16 4.84257 25.1309C4.64043 24.1019 2.05859 23.3578 2.05859 22.3104C2.05859 21.263 4.64503 20.4726 4.84257 19.4941C5.04011 18.5156 2.95433 16.7607 3.34482 15.8189C3.7353 14.8772 6.43205 15.1345 6.99711 14.2846C7.56217 13.4347 6.29414 11.0688 7.01999 10.3246C7.74584 9.58034 10.1255 10.8759 10.9845 10.3017C11.8436 9.72743 11.5588 7.04455 12.5144 6.6265C13.4699 6.20845 15.1651 8.33087 16.1895 8.12874C17.214 7.92661 17.9584 5.34006 19.0058 5.34006C20.0532 5.34006 20.8432 7.9312 21.8263 8.12874C22.8095 8.32628 24.5552 6.2405 25.5015 6.63099C26.4479 7.02148 26.1862 9.71363 27.0361 10.2833C27.8859 10.8529 30.2748 9.58032 31.0006 10.3062C31.7264 11.032 30.4493 13.4119 31.0006 14.2709C31.5519 15.13 34.2623 14.845 34.6758 15.8005C35.0892 16.7561 32.9759 18.4513 33.178 19.4757C33.3802 20.5002 35.9804 21.263 35.9804 22.3104Z" fill="black"/>
<path d="M35.9413 21.6854C35.9413 22.7328 33.3503 23.5228 33.1574 24.5059C32.9644 25.489 35.0456 27.2347 34.6551 28.1811C34.2646 29.1274 31.568 28.8657 30.9799 29.7156C30.3919 30.5655 31.6827 32.9542 30.9568 33.6755C30.231 34.3967 27.8515 33.1289 26.997 33.6986C26.1425 34.2682 26.418 36.9603 25.4625 37.3737C24.5069 37.7872 22.8163 35.674 21.7873 35.8715C20.7582 36.069 20.0142 38.66 18.9667 38.66C17.9193 38.66 17.129 36.069 16.1505 35.8715C15.172 35.674 13.4217 37.7596 12.4753 37.3737C11.5289 36.9878 11.7908 34.2866 10.9455 33.6986C10.1002 33.1105 7.70678 34.4013 6.98093 33.6755C6.25508 32.9496 7.53229 30.5701 6.95805 29.7156C6.3838 28.8611 3.70083 29.1366 3.30575 28.1811C2.91067 27.2255 5.00564 25.535 4.8035 24.5059C4.60137 23.4769 2.01953 22.7328 2.01953 21.6854C2.01953 20.638 4.60596 19.8476 4.8035 18.8691C5.00104 17.8906 2.91527 16.1357 3.30575 15.1939C3.69624 14.2522 6.39299 14.5095 6.95805 13.6596C7.52311 12.8097 6.25508 10.4438 6.98093 9.69956C7.70678 8.95534 10.0864 10.2509 10.9455 9.67668C11.8045 9.10243 11.5198 6.41955 12.4753 6.0015C13.4308 5.58345 15.126 7.70587 16.1505 7.50374C17.1749 7.30161 17.9193 4.71506 18.9667 4.71506C20.0142 4.71506 20.8042 7.3062 21.7873 7.50374C22.7704 7.70128 24.5161 5.6155 25.4625 6.00599C26.4088 6.39648 26.1471 9.08863 26.997 9.65828C27.8469 10.2279 30.2357 8.95532 30.9615 9.68116C31.6874 10.407 30.4103 12.7869 30.9615 13.6459C31.5128 14.505 34.2233 14.22 34.6367 15.1755C35.0502 16.1311 32.9368 17.8263 33.139 18.8507C33.3411 19.8752 35.9413 20.638 35.9413 21.6854Z" fill="#FA7449"/>
<path d="M12.9645 21.2151V22.5951H11.3745V21.2151H10.5645V24.7151H11.3745V23.2801H12.9645V24.7151H13.7745V21.2151H12.9645Z" fill="#2D2D2D"/>
<path d="M16.1575 24.7751C17.1525 24.7751 17.7425 24.2051 17.7425 23.1751V21.2151H16.9425V23.1451C16.9425 23.8101 16.6575 24.0851 16.1625 24.0851C15.6725 24.0851 15.3825 23.8101 15.3825 23.1451V21.2151H14.5725V23.1751C14.5725 24.2051 15.1625 24.7751 16.1575 24.7751Z" fill="#2D2D2D"/>
<path d="M21.643 24.7151L20.858 23.5901C21.313 23.3951 21.578 23.0101 21.578 22.4851C21.578 21.7001 20.993 21.2151 20.058 21.2151H18.543V24.7151H19.353V23.7401H20.058H20.098L20.773 24.7151H21.643ZM20.758 22.4851C20.758 22.8651 20.508 23.0951 20.013 23.0951H19.353V21.8751H20.013C20.508 21.8751 20.758 22.1001 20.758 22.4851Z" fill="#2D2D2D"/>
<path d="M25.3197 24.7151L24.5347 23.5901C24.9897 23.3951 25.2547 23.0101 25.2547 22.4851C25.2547 21.7001 24.6697 21.2151 23.7347 21.2151H22.2197V24.7151H23.0297V23.7401H23.7347H23.7747L24.4497 24.7151H25.3197ZM24.4347 22.4851C24.4347 22.8651 24.1847 23.0951 23.6897 23.0951H23.0297V21.8751H23.6897C24.1847 21.8751 24.4347 22.1001 24.4347 22.4851Z" fill="#2D2D2D"/>
<path d="M28.8877 21.2151H28.0927L27.1577 22.7701L26.2227 21.2151H25.3627L26.7177 23.4651V24.7151H27.5277V23.4751L28.8877 21.2151Z" fill="#2D2D2D"/>
<path d="M16.9266 29.7751C17.9216 29.7751 18.5116 29.2051 18.5116 28.1751V26.2151H17.7116V28.1451C17.7116 28.8101 17.4266 29.0851 16.9316 29.0851C16.4416 29.0851 16.1516 28.8101 16.1516 28.1451V26.2151H15.3416V28.1751C15.3416 29.2051 15.9316 29.7751 16.9266 29.7751Z" fill="#2D2D2D"/>
<path d="M20.827 26.2151H19.312V29.7151H20.122V28.7501H20.827C21.762 28.7501 22.347 28.2651 22.347 27.4851C22.347 26.7001 21.762 26.2151 20.827 26.2151ZM20.782 28.0901H20.122V26.8751H20.782C21.277 26.8751 21.527 27.1001 21.527 27.4851C21.527 27.8651 21.277 28.0901 20.782 28.0901Z" fill="#2D2D2D"/>
<path d="M22.9741 28.5001H23.5941L23.7491 26.2151H22.8191L22.9741 28.5001ZM23.2841 29.7551C23.5641 29.7551 23.7641 29.5501 23.7641 29.3001C23.7641 29.0451 23.5641 28.8551 23.2841 28.8551C23.0041 28.8551 22.8041 29.0451 22.8041 29.3001C22.8041 29.5501 23.0041 29.7551 23.2841 29.7551Z" fill="#2D2D2D"/>
<path fill-rule="evenodd" clip-rule="evenodd" d="M18.9805 33.8988C25.4776 33.8988 30.7445 28.6319 30.7445 22.1348C30.7445 15.6377 25.4776 10.3707 18.9805 10.3707C12.4834 10.3707 7.21641 15.6377 7.21641 22.1348C7.21641 28.6319 12.4834 33.8988 18.9805 33.8988ZM18.9805 34.2988C25.6985 34.2988 31.1445 28.8528 31.1445 22.1348C31.1445 15.4167 25.6985 9.9707 18.9805 9.9707C12.2624 9.9707 6.81641 15.4167 6.81641 22.1348C6.81641 28.8528 12.2624 34.2988 18.9805 34.2988Z" fill="#E3B923"/>
<path d="M20.4946 14.7454C20.5914 12.9999 19.0029 11.9979 18.1966 11.7151C18.9707 13.0726 17.7935 14.3817 17.1081 14.8666C16.0437 15.5454 16.0197 16.4423 16.0195 17.1696V18.1151L17.2026 19.7151H20.2133L21.4622 18.3817C22.6233 16.5393 21.7041 14.8666 21.0994 14.2605C21.4864 15.4241 21.0994 16.1999 20.8575 16.4423C20.2769 16.8302 20.2124 16.4423 20.2527 16.1999C20.3495 15.909 20.4543 15.109 20.4946 14.7454Z" fill="#2D2D2D"/>
</svg>
