<svg width="38" height="44" viewBox="0 0 38 44" fill="none" xmlns="http://www.w3.org/2000/svg">
<path d="M32.5268 19.3495C32.5275 16.6601 31.7383 14.0296 30.257 11.7849C28.7757 9.54016 26.6677 7.78014 24.1947 6.72307C21.7217 5.666 18.9928 5.35845 16.3466 5.83892C13.7005 6.3194 11.2537 7.56673 9.31019 9.42573C7.3667 11.2847 6.01205 13.6735 5.4145 16.2957C4.81695 18.9179 5.00294 21.6579 5.94911 24.1754C6.89528 26.6929 8.55993 28.877 10.7367 30.4565C12.9134 32.036 15.5063 32.9414 18.1931 33.0602V38.5197C24.6514 34.6054 28.9966 28.5355 28.9966 28.5355C31.2738 26.0184 32.5322 22.7437 32.5268 19.3495Z" fill="#AC9648"/>
<path d="M32.2092 19.2117C32.21 16.5223 31.4208 13.8919 29.9395 11.6471C28.4582 9.40237 26.3502 7.64235 23.8772 6.58528C21.4042 5.52821 18.6753 5.22066 16.0291 5.70114C13.383 6.18161 10.9362 7.42895 8.99268 9.28794C7.04919 11.1469 5.69455 13.5357 5.09699 16.1579C4.49944 18.7801 4.68544 21.5201 5.63161 24.0376C6.57778 26.5551 8.24243 28.7392 10.4191 30.3187C12.5959 31.8983 15.1888 32.8036 17.8756 32.9224V38.3819C24.3339 34.4676 28.6791 28.3977 28.6791 28.3977C30.9563 25.8806 32.2147 22.606 32.2092 19.2117Z" fill="#FFD74A"/>
<path d="M17.8019 12.3351H16.2042L15.0059 13.9328V16.3294L18.6008 19.525H19.3997L22.9946 16.3294V13.9328L21.7963 12.3351H20.1986L19.0002 13.1339L17.8019 12.3351Z" fill="#2D2D2D"/>
<path d="M9.71289 25.1275H12.2779V24.4675H10.5229V21.6275H9.71289V25.1275Z" fill="#2D2D2D"/>
<path d="M12.7305 25.1275H13.5405V21.6275H12.7305V25.1275Z" fill="#2D2D2D"/>
<path d="M16.7661 25.1275H17.7111L16.1761 23.1875L17.6261 21.6275H16.7261L15.1761 23.2625V21.6275H14.3711V25.1275H15.1761V24.2425L15.6461 23.7525L16.7661 25.1275Z" fill="#2D2D2D"/>
<path d="M18.8773 24.4775V23.6675H20.5023V23.0375H18.8773V22.2775H20.7173V21.6275H18.0723V25.1275H20.7823V24.4775H18.8773Z" fill="#2D2D2D"/>
<path d="M22.8428 25.1275H23.6528V21.6275H22.8428V25.1275Z" fill="#2D2D2D"/>
<path d="M25.2084 25.1275H26.0184V22.2875H27.1384V21.6275H24.0884V22.2875H25.2084V25.1275Z" fill="#2D2D2D"/>
<path d="M27.6719 23.9125H28.2919L28.4469 21.6275H27.5169L27.6719 23.9125ZM27.9819 25.1675C28.2619 25.1675 28.4619 24.9625 28.4619 24.7125C28.4619 24.4575 28.2619 24.2675 27.9819 24.2675C27.7019 24.2675 27.5019 24.4575 27.5019 24.7125C27.5019 24.9625 27.7019 25.1675 27.9819 25.1675Z" fill="#2D2D2D"/>
<path fill-rule="evenodd" clip-rule="evenodd" d="M18.7996 31.4663C25.4894 31.4663 30.9126 26.0431 30.9126 19.3533C30.9126 12.6635 25.4894 7.24035 18.7996 7.24035C12.1098 7.24035 6.68662 12.6635 6.68662 19.3533C6.68662 26.0431 12.1098 31.4663 18.7996 31.4663ZM18.7996 31.8663C25.7103 31.8663 31.3126 26.264 31.3126 19.3533C31.3126 12.4426 25.7103 6.84035 18.7996 6.84035C11.8889 6.84035 6.28662 12.4426 6.28662 19.3533C6.28662 26.264 11.8889 31.8663 18.7996 31.8663Z" fill="#171717" fill-opacity="0.22"/>
</svg>
