<svg width="18" height="18" viewBox="0 0 18 18" fill="none" xmlns="http://www.w3.org/2000/svg">
<g clip-path="url(#clip0)">
<path fill-rule="evenodd" clip-rule="evenodd" d="M2.68222 15.41C4.22227 16.9501 6.71919 16.9501 8.25924 15.41L9.04626 14.623L9.78702 15.3638C11.3271 16.9038 13.824 16.9038 15.364 15.3638C16.9041 13.8237 16.9041 11.3268 15.364 9.78675L14.6233 9.04599L15.4101 8.25913C16.9502 6.71908 16.9502 4.22216 15.4101 2.68211C13.8701 1.14206 11.3732 1.14206 9.83312 2.68211L9.04626 3.46898L8.21314 2.63585C6.67309 1.0958 4.17617 1.0958 2.63612 2.63585C1.09607 4.1759 1.09607 6.67282 2.63612 8.21287L3.46924 9.04599L2.68222 9.83301C1.14217 11.3731 1.14217 13.87 2.68222 15.41Z" fill="#FFD74A"/>
</g>
<defs>
<clipPath id="clip0">
<rect width="18" height="18" fill="white"/>
</clipPath>
</defs>
</svg>
